<svg width="165" height="39" fill="none" xmlns="http://www.w3.org/2000/svg"><g clip-path="url(#a)"><path d="M11.717 33.739c-2.124.052-4.63-.517-6.951-1.639a5.326 5.326 0 0 1-2.425-2.482c-.115-.239-.242-.513-.027-.714.215-.201.458 0 .646.126 1.309.85 2.639 1.668 4.141 2.16 4.246 1.387 8.224.94 11.79-1.809 1.652-1.278 1.894-2.937.843-4.73a11.57 11.57 0 0 0-1.827-2.313c-.833-.83-1.727-1.612-2.517-2.474-2.376-2.57-2.303-6.06.291-8.855 3.4-3.666 7.675-5.015 12.606-3.987 5.11 1.064 9.093 3.884 12.06 8.07.562.84.98 1.764 1.237 2.737.088.313.13.638.124.963 0 .258 0 .583-.28.66-.28.077-.35-.257-.481-.428-1.284-1.677-2.55-3.362-3.838-5.042-3.07-4.036-9.693-6.223-14.46-4.767a8.201 8.201 0 0 0-4.237 2.937c-1.14 1.503-1.123 2.931.02 4.425.96 1.261 2.263 2.187 3.433 3.241 2.495 2.237 3.277 6.047 1.756 8.832-1.14 2.082-3.07 3.26-5.255 4.063-1.975.72-4.04 1.033-6.649 1.026z" fill="#009646"/><path d="M6.49 34.874c.556-.113.997.08 1.429.23 3.04 1.062 6.126.95 9.21.3a17.085 17.085 0 0 0 5.543-2.312c2.481-1.552 3.824-3.762 4.029-6.631.159-2.242-.328-4.403-.875-6.556-.428-1.691-1.042-3.343-1.343-5.074-.35-2.051.596-3.213 2.728-3.077 3.567.225 6.804 1.281 9.123 4.186 2.084 2.61 3.692 5.44 4.295 8.749.264 1.447-.14 2.77-.724 4.064-.065.145-.136.337-.33.33-.26 0-.24-.271-.272-.43a22.09 22.09 0 0 0-1.33-4.55c-.834-1.93-1.7-3.841-3.083-5.474-.167-.188-.342-.387-.526-.564-1.464-1.42-2.937-1.069-3.54.85-.449 1.431-.599 2.92-.856 4.39-.383 2.209-.917 4.372-1.968 6.388-2.566 4.921-8.358 8.104-14.294 7.597-2.08-.177-4.11-.505-5.977-1.47-.438-.225-.92-.44-1.24-.946z" fill="#FA0102"/><path d="M38.416 10.335c-.857-.65-1.644-1.272-2.46-1.855a19.8 19.8 0 0 0-6.83-3.174c-2.673-.655-5.35-.375-7.982.327-2.454.65-4.735 1.652-6.715 3.244-2.984 2.386-3.807 5.483-3.176 9.077.44 2.496 1.508 4.8 2.262 7.2.206.596.317 1.22.329 1.85 0 .975-.411 1.518-1.343 1.817-2.184.697-4.287.376-6.313-.564-2.619-1.2-4.716-2.935-5.743-5.68-.287-.77-.347-1.594-.42-2.405-.021-.224-.034-.498.242-.6.24-.09.399.104.539.258.677.751 1.33 1.516 2.024 2.255a4.419 4.419 0 0 0 1.811 1.198c1.165.376 2.151-.116 2.478-1.281.496-1.776.729-3.608 1.133-5.404.436-1.936.923-3.858 1.825-5.637 1.172-2.315 3.108-3.905 5.348-5.17 3.246-1.834 6.715-2.818 10.491-2.418 3.388.36 6.656 1.127 9.53 3.044 1.092.73 2.044 1.6 2.686 2.75.165.322.405.657.284 1.168z" fill="#FA0102"/><path d="M18.778 38.183a22.31 22.31 0 0 0 5.411-1.11c2.243-.79 4.306-1.867 5.988-3.571 1.447-1.458 2.201-3.195 2.182-5.228-.016-1.492-.094-2.984-.108-4.476 0-.796.116-1.585.61-2.254.496-.67 1.029-.737 1.655-.13.122.112.23.239.324.376 1.487 2.33 2.561 4.859 2.575 7.602.023 4.431-1.823 7.173-6.265 8.625-3.837 1.255-7.774 1.207-11.717.455a3.397 3.397 0 0 1-.41-.122 1.858 1.858 0 0 1-.245-.167zM19.087.094a17.558 17.558 0 0 1 3.598 0c1.711.22 3.261.462 4.796 1.152-1.253.238-2.494.293-3.718.419-1.967.2-3.93.396-5.871.78-3.878.764-6.808 2.984-9.402 5.746-1.128 1.197-2.143 2.503-3.438 3.55a4.87 4.87 0 0 1-1.51.915c-.731.236-1.123-.053-1.06-.807.07-.834.461-1.565.912-2.254 2.176-3.325 5.123-5.801 8.74-7.517A21.546 21.546 0 0 1 19.087.094z" fill="#392F84"/><path d="M49.247 21.737v-2.606h9.828c1.114 0 1.671-.627 1.671-1.88 0-.958-.576-1.61-1.727-1.96l-6.99-2.156c-1.114-.349-1.895-.882-2.342-1.601-.448-.72-.672-1.707-.672-2.964 0-1.291.338-2.313 1.013-3.064.676-.752 1.689-1.128 3.04-1.128h10.207v2.605h-9.321a1.456 1.456 0 0 0-1.09.42c-.27.282-.405.72-.405 1.316a2.24 2.24 0 0 0 .292 1.191c.193.315.61.57 1.253.769l6.485 2.008c1.334.414 2.284.951 2.85 1.613.565.661.847 1.653.847 2.976 0 1.357-.308 2.44-.925 3.25-.616.811-1.575 1.217-2.878 1.217l-11.136-.006zM80.83 19.13v2.607H69.203c-1.722 0-2.583-.869-2.583-2.606V6.977c0-1.736.861-2.604 2.583-2.604h11.525v2.604h-9.5c-.51 0-.849.083-1.012.248-.164.165-.248.496-.254.992v3.349h10.513v2.604H69.969v3.72c0 .497.085.83.253.993.17.163.507.248 1.014.248h9.595zM97.395 21.737h-11.55c-1.722 0-2.583-.869-2.583-2.606V4.373h3.342v13.516c0 .496.085.828.253.992.17.163.507.248 1.013.248h9.525v2.608zM102.41 21.737h-3.344V6.977c0-1.736.861-2.604 2.584-2.604h11.524v2.604h-9.497c-.512 0-.85.083-1.014.248-.163.165-.248.496-.253.992v3.448h7.851v2.605h-7.851v7.467zM118.443 21.737h-3.342V6.977c0-1.736.86-2.604 2.582-2.604h8.941c1.589 0 2.725.458 3.408 1.375.683.917 1.025 2.286 1.026 4.106 0 3.87-1.368 5.806-4.104 5.804h-1.773v.124l6.23 5.955h-4.305l-5.724-5.637c-.559-.579-.837-1.067-.836-1.464v-.396a1.072 1.072 0 0 1 .393-.868 1.682 1.682 0 0 1 1.102-.324h3.444c.86 0 1.43-.256 1.709-.768.279-.513.418-1.323.418-2.432 0-1.058-.164-1.802-.493-2.232-.328-.43-1-.645-2.014-.645h-5.396c-.511 0-.849.083-1.013.248-.164.166-.248.496-.253.992v13.526zM148.06 19.13v2.607h-11.627c-1.721 0-2.582-.869-2.583-2.606V6.977c0-1.736.861-2.604 2.583-2.604h11.525v2.604h-9.499c-.512 0-.85.083-1.013.248-.164.165-.248.496-.254.992v3.349h10.513v2.604h-10.513v3.72c0 .497.085.83.254.993.169.163.506.248 1.013.248h9.601zM164.695 19.13v2.607h-11.628c-1.72 0-2.581-.869-2.582-2.606V6.977c0-1.736.861-2.604 2.582-2.604h11.526v2.604h-9.498c-.511 0-.849.083-1.015.248-.165.165-.249.496-.253.992v3.349h10.513v2.604h-10.513v3.72c0 .497.085.83.253.993.169.163.507.248 1.015.248h9.6zM53.388 37.486a5.22 5.22 0 0 1-2.048-.376 4.018 4.018 0 0 1-1.464-1.019 4.3 4.3 0 0 1-.875-1.488 5.411 5.411 0 0 1-.29-1.778 5.087 5.087 0 0 1 .546-2.373 4.138 4.138 0 0 1 1.579-1.676 4.803 4.803 0 0 1 2.513-.62c.68-.013 1.356.11 1.986.36a4.061 4.061 0 0 1 1.45 1c.396.432.697.938.885 1.487.201.584.302 1.198.297 1.815a5.13 5.13 0 0 1-.543 2.388 4.063 4.063 0 0 1-1.57 1.665 4.758 4.758 0 0 1-2.466.614zm-.033-.987a3.546 3.546 0 0 0 1.525-.3c.412-.19.773-.47 1.055-.82.281-.351.491-.752.618-1.18.132-.447.196-.91.192-1.375a4.655 4.655 0 0 0-.217-1.44 3.389 3.389 0 0 0-.644-1.169 2.96 2.96 0 0 0-1.063-.785 3.596 3.596 0 0 0-1.474-.282 3.57 3.57 0 0 0-1.508.297 3.01 3.01 0 0 0-1.069.814c-.286.349-.503.748-.639 1.176-.143.45-.215.918-.212 1.389-.004.471.065.94.205 1.392.131.427.345.825.631 1.172.287.35.653.628 1.069.814a3.599 3.599 0 0 0 1.53.29v.007zM60.072 37.346v-9.02h1.17v9.02h-1.17zm.768-4.073v-.987h5.806v.987H60.84zm5.36 4.073v-9.02h1.169v9.02h-1.168zM69.794 37.461c-.103 0-.203 0-.3-.013-.095-.013-.191-.019-.272-.032-.08-.013-.16-.024-.228-.038l.071-1c.094.018.18.033.257.042.07.01.142.016.213.017a1 1 0 0 0 .5-.114c.153-.08.282-.2.373-.345.246-.44.399-.924.45-1.424.095-.643.174-1.462.235-2.458.039-.626.076-1.252.113-1.879.037-.627.073-1.257.114-1.879h6.013v9.02h-1.169v-8.856l.626.823H71.75l.66-.752c-.044.646-.087 1.293-.126 1.94-.04.648-.089 1.315-.138 2.008-.058.84-.122 1.57-.192 2.19a6.866 6.866 0 0 1-.34 1.542 1.88 1.88 0 0 1-.662.917 1.982 1.982 0 0 1-1.159.291zM79.167 37.346c.18-.484.372-.994.576-1.53a84.06 84.06 0 0 0 .564-1.525l1.15-3.098c.204-.564.385-1.06.557-1.504.173-.443.336-.902.503-1.357h1.535c.169.465.334.92.499 1.367l.549 1.503 1.136 3.106.56 1.533c.19.526.374 1.027.55 1.503h-1.214l-.576-1.629c-.198-.557-.382-1.083-.552-1.578l-1.681-4.782h-.115l-1.692 4.739a59.885 59.885 0 0 0-.576 1.616c-.192.563-.394 1.108-.587 1.634l-1.186.002zm1.706-2.254.103-.899h4.663l.084.899h-4.85zM89.156 37.346v-9.02h1.151v7.06h.096l2.003-2.771c.495-.682.999-1.378 1.512-2.09.513-.711 1.042-1.444 1.589-2.198h1.007v9.02h-1.151V30.29h-.098l-2.001 2.764-1.668 2.303-1.446 1.998-.994-.01zM99.152 37.346v-9.02h1.169v9.02h-1.169zm.768-4.073v-.987h5.808v.987H99.92zm5.372 4.073v-9.02h1.169v9.02h-1.169zM108.7 33.596v-.94h3.864v.94H108.7zM91.459 27.43v-.939h2.83v.94h-2.83zM114.811 37.346v-9.02h1.168v8.844l-.587-.81h9.966l-.607.81v-8.843h1.169v9.02h-11.109zm4.988-.176v-8.843h1.151v8.843h-1.151zM128.568 37.346v-9.02h1.17v9.02h-1.17zm5.62 0-1.152-1.223-1.049-1.116-1.75-1.855h-.633v-.94h.627l1.52-1.546c.357-.363.71-.724 1.059-1.082l1.215-1.252h1.419l-1.391 1.395-1.343 1.37-1.703 1.74-.02-.506 1.892 2.043c.298.312.614.65.946 1.012.333.364.661.716.986 1.057.323.342.605.643.846.903h-1.469zM141.183 37.486a5.219 5.219 0 0 1-2.047-.376 4.032 4.032 0 0 1-1.462-1.019 4.266 4.266 0 0 1-.875-1.488 5.434 5.434 0 0 1-.292-1.778 5.125 5.125 0 0 1 .545-2.373 4.139 4.139 0 0 1 1.581-1.676 4.797 4.797 0 0 1 2.512-.62c.68-.013 1.356.11 1.986.36a4.054 4.054 0 0 1 1.45 1c.395.432.696.938.885 1.487.202.584.302 1.198.297 1.815a5.148 5.148 0 0 1-.541 2.388 4.078 4.078 0 0 1-1.571 1.665 4.75 4.75 0 0 1-2.468.614zm-.03-.994a3.543 3.543 0 0 0 1.523-.301c.412-.19.774-.47 1.057-.82a3.49 3.49 0 0 0 .616-1.18c.132-.446.197-.91.192-1.375a4.657 4.657 0 0 0-.215-1.44 3.439 3.439 0 0 0-.646-1.168 2.956 2.956 0 0 0-1.063-.786 3.596 3.596 0 0 0-1.472-.281 3.568 3.568 0 0 0-1.508.297 2.996 2.996 0 0 0-1.071.813 3.54 3.54 0 0 0-.639 1.176c-.143.45-.215.918-.213 1.389-.002.472.067.941.208 1.392.13.427.344.825.629 1.173.287.348.653.627 1.069.814.482.21 1.005.31 1.533.297zM147.463 37.461c-.103 0-.203 0-.301-.013-.098-.013-.192-.019-.271-.032-.078-.013-.161-.024-.23-.038l.071-1c.096.018.18.033.259.042.071.01.142.017.213.017a1 1 0 0 0 .5-.114c.153-.08.282-.2.373-.345a3.67 3.67 0 0 0 .449-1.424c.096-.643.174-1.462.234-2.458.04-.627.077-1.255.113-1.879.037-.624.075-1.257.114-1.879h6.015v9.02h-1.171v-8.856l.628.823h-5.039l.658-.752-.126 1.94c-.04.647-.086 1.316-.138 2.008-.057.84-.121 1.57-.192 2.19a6.693 6.693 0 0 1-.34 1.542 1.86 1.86 0 0 1-.662.917 1.97 1.97 0 0 1-1.157.291zM156.836 37.346c.18-.484.368-.994.564-1.53.192-.535.384-1.044.576-1.525l1.151-3.098c.201-.564.384-1.06.554-1.504.171-.443.336-.902.505-1.357h1.535l.497 1.367c.163.447.347.94.549 1.503l1.137 3.106c.181.501.367 1.012.559 1.533l.552 1.503h-1.222a81.582 81.582 0 0 1-.575-1.629l-.553-1.578-1.679-4.782h-.109l-1.693 4.739a63.588 63.588 0 0 0-.575 1.616 43.546 43.546 0 0 1-.587 1.634l-1.186.002zm1.704-2.254.103-.899h4.665l.084.899h-4.852z" fill="#000"/></g><defs><clipPath id="a"><path fill="#fff" d="M0 0h165v39H0z"/></clipPath></defs></svg>