<svg width="1440" height="1095" viewBox="0 0 1440 1095" fill="none" xmlns="http://www.w3.org/2000/svg">
<mask id="mask0_176_183" style="mask-type:luminance" maskUnits="userSpaceOnUse" x="-170" y="0" width="1662" height="1087">
<path d="M-170 0H1491.89V1087H-170V0Z" fill="white"/>
</mask>
<g mask="url(#mask0_176_183)">
<path d="M265.525 -14.3359H271.774C275.696 -12.6402 279.662 -11.0968 283.717 -9.79235C320.899 2.18638 358.037 -2.42242 390.078 -14.3359H397.922C394.598 -12.9591 391.216 -11.6982 387.774 -10.5532C351.412 1.99078 307.937 5.23006 265.525 -14.3359Z" fill="#E7EDFA"/>
<path d="M241.639 25.057C222.582 15.2099 205.65 1.8322 191.782 -14.3359H194.729C213.564 5.99101 235.7 21.7525 260.717 30.5572C305.034 46.1883 350.149 39.2532 387.198 24.47C412.06 14.8609 434.927 -0.0309858 457.75 -14.3359H462.825C432.29 4.29528 402.177 24.7962 367.277 34.2096C329.275 44.9492 284.382 46.2536 241.639 25.057Z" fill="#E7EDFA"/>
<path d="M-41.9462 533.022C-3.98869 550.414 26.169 575.459 46.5549 604.764C71.8156 641.027 79.549 678.463 72.281 714.03C57.0359 791.511 -15.5111 847.666 -76.6464 901.32C-109.374 930.625 -137.582 961.975 -167.917 990.845C-173.826 996.454 -179.691 1002.06 -185.511 1007.67V1002.72L-173.324 990.976C-142.989 962.018 -114.161 930.865 -81.6764 901.363C-19.9871 846.47 54.0223 790.337 69.5554 711.29C77.2444 673.463 65.8993 633.026 36.6279 595.438C12.6081 564.589 -23.7319 541.544 -65.1683 525.457C-104.079 510.5 -144.607 500.543 -185.511 490.673V488.781C-136.297 500.586 -87.4598 512.282 -41.9462 533.022Z" fill="#E7EDFA"/>
<path d="M-95.9466 545.957C-57.8118 564.523 -28.0086 590.177 -8.42052 619.526C15.9538 655.918 22.1361 692.724 13.0954 727.03C-5.96088 801.837 -82.8952 853.339 -148.196 902.798C-161.137 912.798 -173.457 923.103 -185.511 933.473V929.125C-175.052 920.233 -164.394 911.407 -153.359 902.755C-87.4599 852.1 -8.99662 800.576 10.4364 724.486C20.0089 687.985 10.1705 648.201 -18.1924 610.264C-41.4366 579.176 -77.6658 555.219 -119.412 537.761C-140.95 528.848 -163.065 521.391 -185.511 514.565V512.543C-154.711 521.63 -124.575 532.087 -95.9466 545.957Z" fill="#E7EDFA"/>
<path d="M-7.20169 896.511C-37.6918 927.925 -63.6394 961.448 -91.7807 992.428C-121.606 1025.34 -150.678 1057.65 -171.994 1092.28C-173.841 1095.28 -175.599 1098.29 -177.268 1101.32H-181.855C-179.639 1097.19 -177.246 1093.06 -174.72 1088.97C-154.179 1055.67 -125.617 1024.6 -97.01 992.906C-68.9131 961.818 -42.3228 928.556 -12.0986 896.881C45.3584 837.813 114.892 777.094 126.525 695.439C132.375 656.307 119.545 615.479 89.3429 578.043C64.6141 547.433 28.1855 525.367 -12.8743 510.65C-68.6251 490.845 -127.168 481.996 -185.511 468.409V466.626C-119.279 482.257 -51.9396 490.953 10.0821 517.476C47.7515 533.694 78.3081 558.064 99.4252 587.174C125.639 623.241 134.879 661.285 129.317 698.048C117.883 778.094 49.7678 838.792 -7.20169 896.511Z" fill="#E7EDFA"/>
<path d="M256.241 951.167C238.226 994.299 220.787 1036.78 210.727 1080.09C209.065 1087.15 207.691 1094.24 206.539 1101.33H202.861C204.161 1093.19 205.764 1085.08 207.669 1076.98C217.463 1035.28 234.658 994.365 251.986 952.841C268.915 912.101 284.183 869.36 302.951 827.663C339.025 749.725 385.646 667.722 378.068 574.74C374.656 530.151 354.78 487.519 320.633 452.409C292.669 423.626 256.374 406.756 217.796 398.994C142.147 384.081 66.5639 395.755 -11.301 379.994C-61.0026 370.211 -114.626 351.101 -155.464 317.991C-166.817 308.842 -176.917 298.29 -185.511 286.599V282.381C-171.95 301.202 -154.974 317.415 -135.433 330.209C-90.274 360.297 -33.792 375.863 16.6186 382.385C91.4036 392.777 165.745 381.342 239.09 401.647C275.012 411.961 307.072 432.366 331.314 460.345C360.379 492.904 377.828 533.876 381.015 577.045C388.461 668.222 343.013 749.855 307.05 826.25C287.927 867.729 273.17 910.535 256.241 951.167Z" fill="#E7EDFA"/>
<path d="M437.143 888.345C426.219 936.782 415.959 984.501 412.37 1032.18C410.55 1055.23 410.996 1078.39 413.699 1101.35H410.087C407.51 1077.4 407.191 1053.26 409.135 1029.24C412.591 983.306 422.961 937.304 433.354 890.693C443.591 845.039 452.033 797.21 463.999 750.36C487.088 662.487 519.617 569.069 500.716 470.652C491.871 423.329 467.796 380.034 432.024 347.124C402.509 319.862 366.856 306.362 330.095 302.883C258.302 296.361 190.009 318.297 116.177 311.188C69.1123 306.949 17.2171 293.252 -24.7068 262.968C-58.8531 238.337 -79.0616 204.64 -90.4954 170.964C-103.923 131.18 -106.671 91.4824 -110.172 53.1545C-112.166 30.6752 -114.006 8.26116 -116.554 -14.2399H-114.205C-111.657 7.69592 -109.773 29.5013 -107.956 51.3067C-104.411 91.178 -101.309 132.028 -87.2824 173.399C-73.099 215.542 -43.715 251.152 -4.65338 273.534C40.838 300.035 94.8826 309.558 142.235 310.34C212.566 312.101 279.751 290.622 350.104 303.188C384.738 309.492 416.58 327.624 442.815 354.342C475.344 387.452 495.375 428.454 503.663 472.848C522.187 569.309 490.722 662.204 467.522 748.382C455.379 795.08 447.447 842.734 437.143 888.345Z" fill="#E7EDFA"/>
<path d="M60.0938 888.623C31.886 922.233 8.17628 957.69 -17.727 990.8C-45.2257 1025.89 -71.9266 1060.37 -91.0051 1096.89C-91.8028 1098.39 -92.534 1099.89 -93.2209 1101.39H-97.6526C-96.3896 1098.8 -95.0823 1096.2 -93.7307 1093.61C-75.3391 1058.5 -49.0591 1025.3 -22.8234 991.431C3.05769 958.277 27.3656 922.993 55.3518 889.253C108.532 826.207 173.567 760.987 181.323 676.81C185.311 636.504 171.019 595.177 139.975 558.175C114.515 527.87 78.0422 506.804 37.3813 493.456C-34.8333 469.976 -110.726 465.911 -185.511 445.106V442.932L-178.731 444.823C-98.96 466.694 -16.1093 468.933 60.0716 499.173C95.886 513.273 127.067 536.75 150.212 567.045C177.334 602.894 187.882 641.483 184.159 679.376C176.559 761.814 112.92 826.925 60.0938 888.623Z" fill="#E7EDFA"/>
<path d="M379.287 912.38C365.992 959.099 353.384 1005.14 347.6 1051.52C345.515 1068.1 344.656 1084.81 345.03 1101.52H341.418C341.183 1083.83 342.19 1066.15 344.432 1048.6C349.993 1004.01 362.646 959.643 375.321 914.663C387.774 870.53 398.499 824.463 412.769 779.2C440.179 694.414 477.449 604.779 462.315 508.079C455.041 461.031 432.178 417.642 397.258 384.617C368.23 356.811 332.333 342.158 294.952 337.267C221.829 327.962 150.921 346.463 75.7598 336.463C27.7423 330.375 -24.7511 314.853 -66.3647 283.591C-100.289 258.155 -119.545 224.479 -129.738 191.173C-141.77 151.824 -142.856 113.039 -144.784 75.516C-146.268 45.6668 -147.421 15.9046 -150.567 -14.3359H-148.218C-145.05 15.3176 -143.787 44.5146 -142.435 73.7333C-140.529 112.757 -139.067 152.693 -126.547 193.587C-114.604 232.545 -88.4125 269.025 -46.3113 294.635C-0.864227 322.353 54.0445 333.897 102.549 336.615C174.432 341.245 244.076 323.114 315.515 338.289C350.658 345.876 382.456 364.877 408.16 392.009C439.058 424.702 459.023 465.887 465.373 510.036C480.219 604.866 444.079 694.109 416.624 777.135C402 822.245 391.807 868.356 379.287 912.38Z" fill="#E7EDFA"/>
<path d="M318.972 933.333C303.328 978.291 288.349 1022.6 280.372 1067.4C278.373 1078.64 276.975 1089.96 276.184 1101.34H272.572C273.48 1088.99 275.076 1076.64 277.247 1064.38C284.936 1021.21 299.849 978.509 314.806 935.224C329.497 892.766 342.504 848.264 359.123 804.784C390.876 723.389 432.844 637.494 421.455 542.577C416.225 497.075 395.02 454.247 360.209 419.702C331.691 391.44 295.594 375.635 257.57 369.287C183.118 357.178 109.884 372.287 33.3042 359.395C-15.5775 351.46 -68.625 334.133 -109.928 301.914C-143.521 275.718 -161.735 242.086 -170.776 209.215C-181.39 170.365 -180.813 132.516 -181.168 95.8838C-181.522 59.2518 -181.168 23.0762 -185.09 -14.3602H-182.763C-178.864 22.5327 -178.864 58.3387 -178.864 94.2533C-178.575 132.364 -178.864 171.344 -167.784 211.65C-157.237 250.108 -131.998 286.74 -90.008 313.502C-44.6938 342.394 11.0349 355.938 60.4705 360.634C133.837 368.135 205.875 353.351 278.289 371.113C313.942 379.961 345.65 399.81 370.778 427.333C400.766 459.963 419.493 501.046 424.291 544.729C435.37 637.777 394.621 723.28 362.912 803.045C346.182 846.481 333.729 890.983 318.972 933.333Z" fill="#E7EDFA"/>
<path d="M123.777 977.408C101.021 1016.67 79.0173 1055.32 64.3927 1095.35C63.6614 1097.33 62.9745 1099.33 62.2876 1101.33H58.2325C59.2518 1098.26 60.2933 1095.2 61.4012 1092.15C75.494 1053.59 97.2315 1016.41 119.013 978.604C140.441 941.537 160.228 902.384 183.65 864.512C228.366 793.77 284.249 719.941 284.249 631.134C284.493 588.588 267.387 546.5 234.703 510.346C207.935 480.736 171.507 461.714 131.777 451.148C53.956 430.713 -26.1471 435.474 -106.317 413.951C-133.569 406.904 -160.084 397.354 -185.511 385.428V383.471C-150.744 400.124 -112.698 411.429 -77.2224 418.582C0.199402 434.734 78.9508 430.104 153.847 455.54C189.778 467.774 221.455 489.719 245.228 518.846C274.034 554.13 287.462 593.654 287.196 633.655C287.196 720.615 232.531 794.314 188.126 863.578C164.438 901.188 145.227 940.45 123.777 977.408Z" fill="#E7EDFA"/>
<path d="M191.183 965.886C170.798 1007.19 151.143 1047.74 138.734 1089.41C137.56 1093.37 136.518 1097.35 135.499 1101.33H131.644C132.907 1096.3 134.258 1091.26 135.743 1086.26C147.664 1046.11 167.141 1007 186.707 967.321C205.875 928.384 223.402 887.405 244.541 847.599C284.914 773.183 336.211 695.223 332.422 604.263C330.849 560.674 312.346 518.281 278.909 482.628C251.521 453.409 215.159 435.452 175.961 426.278C99.2035 408.625 21.3163 416.842 -57.7452 398.189C-101.309 388.146 -147.664 371.167 -185.511 344.84V342.405C-184.58 343.057 -183.716 343.731 -182.786 344.383C-137.826 375.602 -80.6571 393.124 -29.3158 401.82C46.7986 415.081 123.401 407.038 197.565 429.908C233.508 441.184 265.389 462.359 289.412 490.911C319.06 525.825 333.729 565.761 335.28 606.741C338.981 695.875 288.947 773.574 248.862 846.468C227.346 885.991 210.373 927.058 191.183 965.886Z" fill="#E7EDFA"/>
<path d="M125.218 877.601C99.2701 913.276 77.7986 950.669 54.1333 985.713C29.0056 1022.91 4.65337 1059.63 -12.2093 1097.83C-12.7189 1099 -13.1843 1100.17 -13.694 1101.33H-17.9262C-17.0177 1099.15 -16.0649 1096.83 -15.0678 1094.59C1.15224 1057.63 25.1721 1022.5 49.1919 986.67C72.835 951.538 94.905 914.276 120.609 878.405C169.535 811.424 230.005 741.856 233.927 655.31C236.143 613.852 220.322 572.133 188.436 535.523C162.311 505.543 125.838 485.521 85.6205 473.52C6.84698 450.367 -75.4053 451.628 -156.638 427.258C-166.211 424.432 -175.894 421.301 -185.444 417.844V415.866C-166.291 422.634 -146.769 428.354 -126.968 432.997C-48.3499 452.02 32.573 450.802 108.089 478.651C143.981 491.801 175.437 514.489 198.939 544.175C226.925 579.742 238.824 618.83 236.919 657.81C232.975 742.661 173.856 812.055 125.218 877.601Z" fill="#E7EDFA"/>
<path d="M492.539 861.31C484.008 911.311 476.053 960.683 474.635 1009.66C473.579 1040.44 476.392 1071.23 483.011 1101.34H479.244C472.759 1070.26 470.103 1038.52 471.334 1006.82C472.685 959.596 480.795 912.029 488.905 863.853C496.882 816.59 503.087 767.436 512.726 718.869C531.472 627.909 559.259 530.883 536.613 430.923C526.254 383.312 500.972 340.073 464.309 307.266C436.46 282.409 400.633 267.883 363.023 266.199C292.692 262.547 226.969 287.787 154.733 283.591C108.621 281.221 57.4347 269.351 15.2449 240.111C-19.1451 216.197 -40.2844 182.631 -52.8925 148.629C-67.7166 108.432 -72.0818 67.9305 -77.134 28.7985C-78.9509 14.4284 -80.7236 0.080101 -82.6292 -14.3118H-80.2804C-78.4634 -0.615578 -76.7794 13.0589 -75.051 26.7333C-69.9103 67.4088 -65.0797 109.128 -49.6573 150.89C-34.4857 192.9 -4.33313 228.104 35.2319 250.003C80.7455 275.243 133.882 282.743 180.126 281.569C248.818 280.439 313.454 255.677 382.655 265.612C416.735 270.634 448.577 287.874 475.322 314.158C508.56 346.768 529.766 387.856 539.759 432.945C561.918 530.97 535.172 627.387 516.227 716.63C506.278 765.023 500.583 814.156 492.539 861.31Z" fill="#E7EDFA"/>
<path d="M964.161 1101.34C959.729 1097.51 955.475 1093.64 951.243 1089.71C910.028 1051.6 872.624 1010.14 845.613 961.9C819.931 916.05 804.177 865.331 793.408 812.829C782.483 759.305 777.188 703.694 771.759 647.409C766.441 592.167 759.195 535.274 755.007 478.119C747.739 370.941 746.542 254.545 702.181 147.236C681.086 95.6904 649.111 53.2755 610.157 25.7092C578.248 3.12127 545.476 -1.85717 514.875 4.94746C455.047 18.6219 406.166 63.6456 344.388 76.9722C305.056 85.8204 259.077 85.2116 216.267 62.7759C184.381 46.1013 159.696 17.361 141.039 -14.3359H143.255C165.413 23.5135 196.635 54.1017 235.478 68.9284C280.061 85.9943 326.572 81.1898 365.106 68.3197C422.496 49.8624 470.492 5.59971 531.029 -0.704895C560.854 -3.6398 591.942 7.77361 621.014 30.7093C657.088 59.1018 685.407 100.278 705.217 148.736C748.714 253.958 750.62 369.441 757.289 474.706C761.211 531.752 768.878 588.515 774.085 643.648C779.647 702.172 785.541 759.696 796.864 815.242C807.944 869.896 825.67 921.898 853.28 969.096C881.931 1018.36 922.88 1060.4 966.133 1098.95L968.947 1101.34H964.161Z" fill="#E7EDFA"/>
<path d="M868.215 1101.35C839.253 1070.61 813.55 1037.65 794.161 1001.11C769.786 955.453 755.893 905.255 747.118 853.622C738.255 801.011 735.153 746.574 731.984 691.485C728.904 637.396 723.918 581.633 722.057 525.761C719.176 421.017 722.899 307.556 682.172 201.204C662.783 150.137 631.894 107.483 593.228 78.9596C561.541 55.6326 528.237 49.3715 496.572 54.6978C434.683 65.4591 382.855 107.243 319.082 117.744C278.488 124.722 231.49 122.222 188.657 98.5692C153.758 79.3293 128.253 46.3931 110.128 11.3047C105.814 2.89852 101.833 -5.61632 98.1843 -14.2399H100.555C104.499 -5.04383 108.732 4.1088 113.385 13.1527C134.546 54.1978 166.565 88.2862 208.068 105.374C252.961 123.875 300.713 121.135 340.687 110.178C400.16 94.6126 451.147 53.5239 513.368 49.9803C544.036 48.3715 575.412 60.8502 604.218 84.3946C639.893 113.57 667.104 154.876 685.296 202.878C725.292 307.23 722.301 419.756 724.65 522.63C726.245 578.393 731.696 634.048 734.687 687.985C737.878 745.27 741.335 801.598 750.686 856.209C759.793 909.951 775.725 961.388 801.828 1008.54C820.441 1042.22 845.103 1072.85 872.469 1101.44L868.215 1101.35Z" fill="#E7EDFA"/>
<path d="M1073.67 1101.33C1048.74 1084.57 1025.05 1066.11 1002.76 1046.09C960.904 1008.78 922.636 967.821 894.184 919.602C867.151 873.731 849.624 822.424 836.905 769.118C823.964 714.768 816.408 658.048 808.719 600.611C801.141 544.261 791.679 486.281 785.032 427.909C773.376 318.426 767.305 199.183 719.332 90.9391C700.475 48.0244 674.66 11.8491 644.17 -14.4562H648.092C678.671 12.6753 703.665 49.6332 722.478 92.4392C769.521 198.487 776.168 316.774 787.247 424.322C793.518 482.607 803.401 540.413 810.846 596.676C818.735 656.374 826.911 715.029 840.428 771.401C853.723 826.903 873.2 879.427 902.028 926.602C932.098 975.843 973.844 1017.28 1017.7 1054.87C1037.23 1071.69 1057.9 1087.2 1079.56 1101.28L1073.67 1101.33Z" fill="#E7EDFA"/>
<path d="M780.6 1101.35C764.987 1081.26 751.329 1059.78 739.806 1037.19C716.894 991.539 704.774 942.146 698.015 891.535C691.168 839.859 690.326 786.683 689.44 732.833C688.598 680.004 685.85 625.437 686.315 570.891C687.8 468.713 696.442 358.273 659.26 252.965C641.533 202.397 611.841 159.483 573.507 130.155C542.108 106.067 508.272 98.5671 475.655 102.415C411.882 110.285 357.107 148.83 291.429 156.309C249.616 161.418 201.643 157.026 158.832 132.199C123.955 111.981 99.2924 78.8272 82.2303 43.8692C73.2389 25.0499 65.6338 5.62239 59.4734 -14.2637H61.8223C68.2943 6.27166 76.209 26.3423 85.5097 45.804C105.452 86.697 136.674 121.264 178.465 139.634C223.579 159.526 272.55 158.852 313.897 149.852C375.387 137.156 429.299 99.2845 493.093 98.4584C524.514 98.1975 556.023 111.633 584.453 135.808C619.707 165.744 645.765 207.115 662.34 254.639C698.791 357.904 690.969 467.495 688.93 567.847C688.199 622.197 691.39 676.743 692.165 729.463C692.985 785.443 694.248 840.467 701.361 894.122C708.385 946.863 722.478 997.67 747.185 1044.71C757.786 1064.64 770.154 1083.61 784.145 1101.41L780.6 1101.35Z" fill="#E7EDFA"/>
<path d="M545.365 831.316C539.205 882.948 533.577 933.777 534.286 984.04C534.523 1023.91 541.002 1063.5 553.497 1101.44H549.797C536.635 1062.48 531.627 1022.09 530.962 981.322C530.231 932.907 536.081 883.84 541.908 834.164C547.67 785.4 551.592 734.833 558.926 684.678C573.329 590.739 596.307 490.257 570.005 388.817C558.18 340.985 531.729 297.844 494.201 265.181C466.418 241.079 430.687 227.651 393.601 227.375C324.777 226.549 261.736 255.137 190.984 253.833C145.891 253.333 95.4366 243.311 53.0252 215.092C18.4579 192.156 -3.63409 158.568 -17.3724 124.262C-33.5703 83.7164 -39.5309 42.4102 -46.1785 2.51711L-48.9039 -14.288H-46.688C-45.8903 -9.41818 -45.1074 -4.54846 -44.3392 0.321331C-37.5588 41.758 -31.0443 84.2599 -14.2259 126.414C1.81683 166.546 30.7116 202.265 72.835 224.375C118.326 248.289 170.465 253.789 215.558 250.681C282.521 246.68 344.565 218.614 412.525 225.897C445.984 229.614 477.804 245.941 505.014 271.747C538.762 303.683 561.297 344.967 572.952 390.73C598.767 490.191 576.764 590.022 562.095 682.178C554.583 732.137 551.171 782.683 545.365 831.316Z" fill="#E7EDFA"/>
<path d="M599.432 804.023C595.532 857.199 592.142 909.505 595 960.942C597.681 1009.36 607.32 1056.6 627.196 1101.45H623.563L622.831 1099.86C602.889 1054.71 594.38 1006.83 591.632 958.224C588.907 908.657 592.607 858.221 596.263 807.002C599.875 756.804 601.648 704.824 606.766 653.127C617.004 556.297 635.373 452.337 605.503 349.442C591.366 300.049 563.912 256.961 526.353 225.894C498.661 202.513 463.022 190.198 426.507 191.393C359.234 193.567 298.741 225.481 229.518 227.133C185.422 228.503 135.699 220.351 93.0657 193.241C58.3654 171.175 35.4536 137.674 20.5631 103.107C3.98853 64.3017 -3.65613 24.4308 -11.2787 -14.288H-9.06281C-1.30737 25.2134 6.84698 65.5192 23.7983 105.151C41.1041 145.587 70.7964 180.958 112.898 201.872C158.345 224.481 209.553 227.96 253.493 222.807C318.794 215.872 378.312 184.458 445.009 189.045C477.87 191.437 509.623 206.828 537.277 232.112C571.534 263.439 595.244 304.81 608.517 351.225C637.81 452.12 620.372 555.384 609.802 650.409C604.44 701.846 603.132 753.848 599.432 804.023Z" fill="#E7EDFA"/>
<path d="M850.599 -14.3359C866.109 36.3619 879.405 87.2989 892.966 135.932C910.892 199.5 931.809 261.72 950.245 322.657C969.833 387.334 989.399 450.728 1013.04 510.513C1036.31 569.32 1064.41 623.562 1099.46 669.781C1136.02 718.131 1181.05 755.372 1227.09 787.895C1310.59 846.963 1408.79 883.551 1507.42 854.354V858.376C1502.99 859.753 1498.56 860.978 1494.13 862.05C1393.26 886.573 1295.41 842.484 1212.31 781.286C1168 748.676 1126.16 711.261 1091.26 663.65C1058.02 618.409 1031.97 565.189 1009.61 508.709C986.829 451.098 968.216 389.725 949.315 327.527C930.79 266.502 910.183 204.021 891.991 140.41C877.898 90.2338 864.182 37.8403 848.205 -14.2924L850.599 -14.3359Z" fill="#E7EDFA"/>
<path d="M907.568 -14.3359C909.681 -8.1038 911.786 -1.89339 913.883 4.29527C936.485 69.5153 961.768 133.148 984.547 195.607C1008.74 261.849 1032.81 326.7 1060.4 387.419C1087.54 447.117 1118.87 501.533 1156.14 547.121C1195.01 594.71 1240.99 629.929 1287.52 660.169C1355.95 704.628 1432.39 732.825 1507.4 721.042V725.52C1426.54 738.26 1345.07 703.476 1272.85 654.408C1228 623.972 1184.99 588.297 1147.74 541.36C1112.29 496.75 1082.98 443.139 1056.89 385.789C1030.3 327.308 1007.37 264.48 984.037 200.803C961.148 138.301 936.153 74.4502 913.307 9.12148C910.648 1.35305 907.982 -6.44438 905.308 -14.2708L907.568 -14.3359Z" fill="#E7EDFA"/>
<path d="M878.674 -14.3359C887.692 14.6218 896.4 43.3186 904.998 71.2328C925.273 135.714 948.362 198.608 968.992 260.371C990.884 325.874 1012.71 390.029 1038.3 450.314C1063.54 509.577 1093.26 563.906 1129.44 609.864C1167.11 657.866 1212.71 694.129 1259 725.521C1334.78 776.85 1421.51 809.09 1507.4 789.807V794.155C1415.18 815.177 1323.48 775.502 1244.24 719.304C1199.68 687.715 1157.21 651.192 1121.09 603.886C1086.79 558.927 1059.04 505.49 1034.8 448.553C1010.12 390.485 989.333 328.352 968.194 265.393C947.498 203.586 924.675 140.388 904.178 75.907C894.938 46.4492 885.809 16.2088 876.28 -14.2708L878.674 -14.3359Z" fill="#E7EDFA"/>
<path d="M754.276 -14.3359C803.423 90.0162 819.577 208.586 838.478 316.112C849.402 376.68 863.717 436.444 875.571 494.729C888.18 556.622 900.943 617.364 918.515 675.301C935.798 732.304 958.843 785.675 990.264 832.656C1023.04 881.723 1066.27 921.616 1111.14 957.313C1197.2 1025.84 1303.92 1073.4 1419.92 1050.56C1450.66 1044.32 1480.19 1033.32 1507.4 1017.97V1021.08C1470.09 1041.97 1428.7 1054.89 1385.95 1059.01C1275.44 1068.88 1176.86 1016.18 1096.16 949.378C1053.15 913.789 1013.26 874.157 982.242 825.981C952.639 780.11 931.61 727.934 914.969 673.214C898.062 617.364 886.052 558.601 873.865 499.098C861.9 440.683 847.962 380.746 836.772 320.091C817.184 210.978 801.54 91.8206 751.838 -14.3359H754.276Z" fill="#E7EDFA"/>
<path d="M821.771 -14.3359C844.838 56.4931 861.035 129.67 877.832 198.347C893.343 260.98 912.155 322.417 928.397 382.529C945.659 446.357 962.987 508.925 984.613 568.167C1005.91 626.408 1032.34 680.367 1066.22 726.869C1101.54 775.523 1145.99 813.677 1191.73 847.331C1279.39 911.942 1385 952.857 1493.22 919.247C1497.96 917.768 1502.7 916.116 1507.4 914.333V917.681C1492.62 923.51 1477.3 927.943 1461.66 930.921C1357.52 950.487 1259.25 903.572 1176.84 840.374C1132.96 806.699 1091.71 768.632 1058 720.673C1025.98 675.215 1001.56 622.256 981.09 566.319C960.239 509.251 943.842 448.662 927.156 387.311C910.803 327.113 892.412 265.415 876.569 202.738C859.13 132.475 842.755 57.9497 819.267 -14.2273L821.771 -14.3359Z" fill="#E7EDFA"/>
<path d="M939.211 -14.3359C958.444 34.1006 978.365 81.5805 996.823 128.452C1023.41 195.389 1049.6 260.891 1079.12 321.937C1108.19 382.004 1141.16 436.463 1179.41 481.595C1219.29 528.727 1265.83 562.88 1312.36 591.881C1374.23 630.209 1441.65 654.84 1507.4 648.383V652.97C1436.18 659.797 1363.63 629.383 1297.98 586.642C1252.91 557.293 1209.35 522.618 1171.06 476.051C1134.6 431.81 1103.65 378.113 1075.77 320.415C1047.3 261.587 1022.19 198.128 996.645 133.778C977.39 85.2546 956.893 35.9485 936.995 -14.3359H939.211Z" fill="#E7EDFA"/>
<path d="M790.394 -14.3359C823.876 74.5156 841.071 170.172 859.639 258.436C872.935 320.069 889.443 380.702 903.491 439.922C918.426 502.816 933.471 564.493 953.082 623.126C972.382 680.78 997.133 734.456 1029.79 781.284C1063.87 830.113 1107.75 869.245 1153.06 904.029C1239.97 970.575 1346.26 1014.9 1458.38 986.641C1475.28 982.302 1491.7 976.331 1507.4 968.814V971.901C1481.6 984.209 1454.01 992.511 1425.61 996.511C1318.19 1011.25 1219.74 961.379 1138.13 896.355C1094.7 861.701 1054.1 822.786 1021.68 774.741C990.862 729.087 968.105 676.454 949.559 621.06C930.657 564.536 916.454 504.882 902.006 444.422C887.869 385.094 871.671 324.243 858.155 262.545C838.899 172.694 821.859 75.9505 787.89 -14.3359H790.394Z" fill="#E7EDFA"/>
<path d="M1049.67 -14.3359C1071.19 28.9484 1092.92 71.037 1115.66 110.952C1150.36 171.824 1187.81 225.978 1229.02 269.501C1272.01 314.938 1319.23 345.591 1366.05 370.701C1412.47 395.593 1460.87 411.79 1507.4 411.79V416.442C1456.06 415.964 1402.59 395.593 1351.93 366.94C1306.58 341.265 1261.95 309.655 1220.51 264.61C1181.12 221.826 1145.57 168.128 1112.25 109.734C1089.8 70.3413 1068.39 28.5353 1047.21 -14.3359H1049.67Z" fill="#E7EDFA"/>
<path d="M974.177 -14.3359C984.968 10.3172 995.67 34.7529 1006.02 59.0364C1034.82 126.604 1063.28 192.672 1094.65 254.065C1125.67 314.415 1160.06 368.852 1199.37 413.506C1240.39 460.138 1287.1 493.161 1333.9 520.901C1389.67 554.011 1449.43 575.338 1507.4 572.36V577.034C1444.23 579.925 1379.35 553.338 1319.56 516.162C1274.34 487.9 1230.42 454.29 1191.04 408.18C1153.57 364.374 1121.07 310.633 1091.33 252.652C1061.02 193.52 1033.72 129.474 1006.02 64.5365C994.939 38.4486 983.417 12.2086 971.872 -14.3142L974.177 -14.3359Z" fill="#E7EDFA"/>
<path d="M1223.11 1101.34C1158.85 1080.41 1101.23 1042.45 1051 999.315C1008.57 962.835 969.479 922.551 939.676 874.288C911.379 828.438 892.079 776.632 877.388 722.586C862.453 667.453 852.681 609.668 842.732 551.188C832.983 493.772 821.261 434.77 812.397 375.245C796.377 263.567 785.253 141.562 733.823 32.6878C726.229 16.3748 717.377 0.65458 707.344 -14.3359H709.958C720.086 1.12472 729.076 17.2751 736.859 33.9921C787.247 140.757 798.991 261.741 814.303 371.397C822.9 430.856 834.999 489.663 844.66 546.948C854.897 607.82 865.4 667.518 880.889 724.738C896.156 781.001 917.451 833.982 947.608 881.092C979.051 930.29 1021.57 970.966 1065.96 1007.64C1115.75 1048.8 1173.12 1083.23 1236.05 1101.25L1223.11 1101.34Z" fill="#E7EDFA"/>
<path d="M1507.4 1061.81V1065.11C1483.63 1080.06 1458.15 1092.22 1431.48 1101.33H1422.62C1452.58 1092.01 1481.11 1078.71 1507.4 1061.81Z" fill="#E7EDFA"/>
<path d="M1011.05 -14.3359C1011.31 -13.7707 1011.56 -13.2272 1011.82 -12.6837C1042.85 55.4713 1073.54 122.104 1106.91 183.694C1139.72 244.327 1175.6 298.677 1215.99 342.787C1258.09 388.854 1305 420.725 1351.85 447.139C1402.41 475.749 1455.81 494.315 1507.4 493.38V498.054C1450.83 498.641 1392.31 475.401 1337.58 442.878C1292.24 415.942 1247.95 383.267 1207.51 337.657C1169.04 294.35 1135 240.609 1103.36 182.389C1071.23 122.996 1041.83 58.4713 1011.91 -7.03133L1008.57 -14.3359H1011.05Z" fill="#E7EDFA"/>
<path d="M1092.02 -14.35C1101.57 2.69411 1111.23 19.4122 1120.98 35.8041C1157.49 96.6761 1196.32 150.787 1238.42 193.68C1282.33 238.464 1329.73 267.878 1376.49 291.51C1419.85 313.511 1464.61 327.642 1507.22 327.685V332.403C1459.8 331.816 1410.08 313.837 1362.44 288.271C1317.08 263.878 1272.19 233.377 1229.8 188.941C1189.54 146.722 1152.51 93.1542 1117.43 34.5867C1107.86 18.644 1098.43 2.28831 1089.16 -14.4805L1092.02 -14.35Z" fill="#E7EDFA"/>
<path d="M689.972 1077.68C693.96 1085.7 698.37 1093.59 703.045 1101.35H699.566C693.415 1091.22 687.787 1080.78 682.704 1070.09C661.21 1024.68 650.928 976.001 646.186 926.325C641.378 875.67 642.818 823.777 644.192 771.253C645.566 719.728 645.101 666.4 647.892 613.267C653.742 513.676 667.281 406.453 633.733 302.383C617.823 252.381 589.195 209.379 551.237 179.139C520.215 154.355 485.847 145.615 452.322 147.985C386.755 152.963 329.076 188.226 261.603 192.791C218.616 196.052 169.734 189.769 126.99 163.768C92.1794 142.637 68.3589 109.288 52.3826 74.5033C39.0875 45.3716 30.623 15.4137 23.3994 -14.2399H25.6152C33.1048 16.0876 41.9681 46.6325 55.6177 76.5252C74.2974 117.049 104.765 152.116 146.756 171.769C192.048 193.03 242.17 194.4 284.848 187.356C348.265 177.53 405.035 142.876 470.314 144.767C502.488 145.833 534.131 160.268 562.183 185.008C596.972 215.662 621.856 257.055 636.791 304.057C669.674 406.236 657.022 512.763 650.751 610.419C647.693 663.443 648.646 716.663 647.183 768.079C645.655 822.69 644.591 876.41 649.577 928.956C654.496 980.697 666.727 1030.79 689.972 1077.68Z" fill="#E7EDFA"/>
<path d="M1287.28 -14.3359C1317.78 6.97144 1350.62 24.8453 1385.19 38.9486C1426.96 56.3405 1468.93 65.7321 1507.4 60.9059V66.0364C1464.72 70.6236 1417.9 57.971 1371.97 37.2963C1340.32 23.2249 1310.28 5.91842 1282.34 -14.3359H1287.28Z" fill="#E7EDFA"/>
<path d="M1200.35 -14.3359C1214.89 2.78774 1230.32 19.1583 1246.59 34.7096C1292.22 78.0157 1339.66 104.821 1386.19 125.692C1427.12 144.062 1468.62 154.867 1507.4 152.671V157.563C1464.23 159.367 1417.86 145.149 1372.7 123.496C1327.54 101.843 1282.25 73.5589 1238.13 30.5572C1224.1 16.8827 1210.32 1.81691 1196.74 -14.3359H1200.35Z" fill="#E7EDFA"/>
<path d="M1140.43 -14.3456C1173.45 35.4608 1207.97 79.6148 1244.38 115.399C1289.16 159.466 1336.65 187.619 1383.31 209.903C1424.84 229.773 1467.27 242.143 1507.4 241.448V246.252C1462.68 246.404 1415.33 230.447 1369.55 207.12C1324.26 184.054 1279.17 154.683 1235.87 110.92C1201.46 76.1364 1168.91 33.0477 1137.64 -14.4325L1140.43 -14.3456Z" fill="#E7EDFA"/>
</g>
</svg>
