<svg width="596" height="596" viewBox="0 0 596 596" fill="none" xmlns="http://www.w3.org/2000/svg">
<circle cx="298" cy="298" r="298" fill="#E7EDFA"/>
<circle cx="298" cy="298" r="214" fill="#F8F8F9"/>
<path d="M174.096 388H172.704V378.928H170.4V377.984C170.72 377.963 171.013 377.936 171.28 377.904C171.547 377.861 171.792 377.792 172.016 377.696C172.24 377.6 172.443 377.472 172.624 377.312C172.805 377.152 172.971 376.944 173.12 376.688H174.096V388ZM187.261 379.568H188.797L186.413 386.208C186.285 386.549 186.146 386.939 185.997 387.376C185.858 387.803 185.698 388.229 185.517 388.656C185.346 389.093 185.149 389.504 184.925 389.888C184.712 390.272 184.472 390.581 184.205 390.816C183.81 391.168 183.432 391.387 183.069 391.472C182.706 391.568 182.296 391.616 181.837 391.616H181.549V390.32C181.933 390.32 182.258 390.277 182.525 390.192C182.792 390.117 183.021 389.995 183.213 389.824C183.416 389.653 183.586 389.44 183.725 389.184C183.874 388.928 184.024 388.624 184.173 388.272L180.397 379.568H181.997L184.925 386.672L187.261 379.568ZM191.416 391.04H190.056V379.568H191.352L191.416 380.864C191.704 380.405 192.094 380.064 192.584 379.84C193.086 379.605 193.624 379.483 194.2 379.472C194.851 379.472 195.4 379.584 195.848 379.808C196.307 380.021 196.686 380.325 196.984 380.72C197.294 381.104 197.523 381.563 197.672 382.096C197.822 382.619 197.896 383.184 197.896 383.792C197.896 384.411 197.822 384.981 197.672 385.504C197.523 386.027 197.294 386.48 196.984 386.864C196.675 387.248 196.286 387.552 195.816 387.776C195.347 387.989 194.787 388.096 194.136 388.096C193.496 388.096 192.952 387.995 192.504 387.792C192.056 387.589 191.694 387.323 191.416 386.992V391.04ZM194.024 386.896C194.483 386.896 194.867 386.816 195.176 386.656C195.496 386.485 195.752 386.261 195.944 385.984C196.147 385.696 196.291 385.365 196.376 384.992C196.472 384.619 196.526 384.219 196.536 383.792C196.536 383.365 196.488 382.965 196.392 382.592C196.307 382.208 196.163 381.877 195.96 381.6C195.758 381.323 195.491 381.104 195.16 380.944C194.84 380.773 194.451 380.688 193.992 380.688C193.448 380.688 192.979 380.837 192.584 381.136C192.19 381.424 191.891 381.792 191.688 382.24C191.571 382.485 191.491 382.741 191.448 383.008C191.406 383.264 191.384 383.531 191.384 383.808C191.384 384.128 191.406 384.427 191.448 384.704C191.491 384.971 191.571 385.227 191.688 385.472C191.891 385.877 192.184 386.219 192.568 386.496C192.963 386.763 193.448 386.896 194.024 386.896ZM203.362 379.472C204.034 379.472 204.615 379.579 205.106 379.792C205.597 380.005 206.007 380.304 206.338 380.688C206.679 381.072 206.93 381.531 207.09 382.064C207.261 382.587 207.346 383.163 207.346 383.792C207.346 384.421 207.261 385.003 207.09 385.536C206.93 386.059 206.679 386.512 206.338 386.896C206.007 387.269 205.591 387.563 205.09 387.776C204.589 387.989 204.002 388.096 203.33 388.096C202.658 388.096 202.071 387.989 201.57 387.776C201.079 387.563 200.663 387.269 200.322 386.896C199.991 386.512 199.741 386.059 199.57 385.536C199.41 385.003 199.33 384.421 199.33 383.792C199.33 383.163 199.41 382.587 199.57 382.064C199.741 381.531 199.991 381.072 200.322 380.688C200.663 380.304 201.085 380.005 201.586 379.792C202.087 379.579 202.679 379.472 203.362 379.472ZM203.33 386.896C203.789 386.896 204.183 386.816 204.514 386.656C204.855 386.496 205.133 386.277 205.346 386C205.57 385.712 205.73 385.381 205.826 385.008C205.933 384.635 205.986 384.229 205.986 383.792C205.986 383.365 205.933 382.965 205.826 382.592C205.73 382.208 205.57 381.877 205.346 381.6C205.133 381.312 204.855 381.088 204.514 380.928C204.183 380.768 203.789 380.688 203.33 380.688C202.871 380.688 202.477 380.768 202.146 380.928C201.815 381.088 201.538 381.312 201.314 381.6C201.101 381.877 200.941 382.208 200.834 382.592C200.738 382.965 200.69 383.365 200.69 383.792C200.69 384.229 200.738 384.635 200.834 385.008C200.941 385.381 201.101 385.712 201.314 386C201.538 386.277 201.815 386.496 202.146 386.656C202.477 386.816 202.871 386.896 203.33 386.896ZM209.166 388V379.568H210.526V383.2H211.998L214.494 379.568H216.046L213.23 383.584L216.286 388H214.686L212.158 384.384H210.526V388H209.166ZM221.807 379.648H228.271V380.896H221.807V379.648ZM221.807 383.792H228.271V385.04H221.807V383.792ZM237.368 384.048C237.656 383.803 237.97 383.536 238.312 383.248C238.664 382.949 238.989 382.629 239.288 382.288C239.597 381.947 239.858 381.589 240.072 381.216C240.285 380.832 240.397 380.416 240.408 379.968C240.429 379.285 240.232 378.763 239.816 378.4C239.4 378.027 238.85 377.84 238.168 377.84C237.624 377.84 237.149 377.952 236.744 378.176C236.338 378.4 236.072 378.725 235.944 379.152H234.456C234.53 378.715 234.685 378.336 234.92 378.016C235.165 377.685 235.458 377.413 235.799 377.2C236.152 376.987 236.536 376.827 236.952 376.72C237.368 376.613 237.794 376.56 238.232 376.56C238.754 376.56 239.234 376.635 239.672 376.784C240.109 376.923 240.488 377.131 240.808 377.408C241.128 377.685 241.373 378.032 241.544 378.448C241.725 378.853 241.816 379.317 241.816 379.84C241.816 380.363 241.736 380.832 241.576 381.248C241.426 381.664 241.218 382.048 240.952 382.4C240.696 382.752 240.402 383.083 240.072 383.392C239.741 383.701 239.4 384.011 239.048 384.32L236.184 386.736H241.944V388H234.168V386.848L237.368 384.048ZM253.143 383.472C253.687 383.643 254.065 383.909 254.279 384.272C254.492 384.635 254.599 385.067 254.599 385.568C254.588 386.016 254.481 386.4 254.279 386.72C254.087 387.04 253.831 387.301 253.511 387.504C253.191 387.707 252.828 387.856 252.423 387.952C252.017 388.048 251.601 388.096 251.174 388.096C250.769 388.096 250.359 388.059 249.943 387.984C249.537 387.909 249.169 387.781 248.839 387.6C248.508 387.419 248.231 387.179 248.007 386.88C247.793 386.581 247.676 386.203 247.655 385.744H248.983C249.025 385.968 249.127 386.155 249.287 386.304C249.447 386.443 249.633 386.56 249.847 386.656C250.071 386.741 250.3 386.805 250.535 386.848C250.78 386.88 250.999 386.896 251.191 386.896C251.415 386.896 251.644 386.88 251.879 386.848C252.124 386.816 252.348 386.752 252.551 386.656C252.753 386.56 252.919 386.427 253.047 386.256C253.175 386.075 253.239 385.845 253.239 385.568C253.239 385.344 253.191 385.141 253.095 384.96C252.999 384.768 252.849 384.624 252.647 384.528C252.465 384.443 252.257 384.395 252.023 384.384C251.788 384.363 251.569 384.352 251.367 384.352H249.863V383.152H251.095C251.297 383.152 251.505 383.136 251.719 383.104C251.932 383.061 252.124 382.992 252.295 382.896C252.476 382.8 252.62 382.677 252.727 382.528C252.844 382.368 252.908 382.144 252.919 381.856C252.919 381.632 252.865 381.445 252.759 381.296C252.663 381.147 252.529 381.029 252.359 380.944C252.199 380.848 252.012 380.784 251.799 380.752C251.596 380.709 251.393 380.688 251.191 380.688C250.999 380.688 250.796 380.704 250.583 380.736C250.369 380.757 250.172 380.811 249.991 380.896C249.809 380.971 249.655 381.077 249.527 381.216C249.399 381.355 249.319 381.536 249.287 381.76H247.943C247.953 381.333 248.055 380.976 248.247 380.688C248.449 380.389 248.705 380.155 249.015 379.984C249.324 379.803 249.665 379.675 250.039 379.6C250.423 379.515 250.801 379.472 251.174 379.472C251.548 379.472 251.916 379.509 252.279 379.584C252.652 379.659 252.983 379.787 253.271 379.968C253.559 380.139 253.793 380.368 253.975 380.656C254.156 380.944 254.247 381.301 254.247 381.728C254.247 382.112 254.156 382.453 253.975 382.752C253.793 383.051 253.516 383.291 253.143 383.472ZM261.905 386.928C261.724 387.173 261.516 387.371 261.281 387.52C261.047 387.669 260.801 387.787 260.545 387.872C260.3 387.957 260.049 388.016 259.793 388.048C259.548 388.08 259.303 388.096 259.057 388.096C258.663 388.096 258.289 388.048 257.937 387.952C257.585 387.856 257.265 387.701 256.977 387.488C256.7 387.275 256.476 387.008 256.305 386.688C256.145 386.368 256.065 386.005 256.065 385.6C256.065 385.12 256.151 384.72 256.321 384.4C256.503 384.069 256.743 383.803 257.041 383.6C257.34 383.397 257.681 383.259 258.065 383.184C258.46 383.099 258.876 383.056 259.313 383.056H261.793C261.793 382.341 261.639 381.776 261.329 381.36C261.02 380.933 260.497 380.709 259.761 380.688C259.313 380.688 258.919 380.763 258.577 380.912C258.236 381.061 258.001 381.307 257.873 381.648H256.417C256.492 381.264 256.641 380.939 256.865 380.672C257.089 380.395 257.356 380.171 257.665 380C257.975 379.819 258.311 379.685 258.673 379.6C259.036 379.515 259.399 379.472 259.761 379.472C260.391 379.472 260.919 379.579 261.345 379.792C261.783 379.995 262.135 380.267 262.401 380.608C262.668 380.939 262.855 381.344 262.961 381.824C263.068 382.304 263.121 382.843 263.121 383.44V388H261.985L261.905 386.928ZM260.305 384.192C260.049 384.192 259.751 384.197 259.409 384.208C259.079 384.208 258.759 384.24 258.449 384.304C258.14 384.368 257.889 384.501 257.697 384.704C257.516 384.907 257.425 385.173 257.425 385.504C257.425 385.749 257.473 385.957 257.569 386.128C257.665 386.299 257.793 386.443 257.953 386.56C258.124 386.677 258.316 386.763 258.529 386.816C258.743 386.869 258.961 386.896 259.185 386.896C259.985 386.896 260.615 386.704 261.073 386.32C261.543 385.925 261.783 385.355 261.793 384.608V384.192H260.305ZM265.228 388V379.568H266.588V383.264H270.812V379.568H272.172V388H270.812V384.464H266.588V388H265.228ZM280.722 388H279.362V384.88H277.426L275.378 388H273.794L275.986 384.672C275.378 384.501 274.903 384.224 274.562 383.84C274.221 383.445 274.039 382.923 274.018 382.272C274.007 381.707 274.093 381.253 274.274 380.912C274.466 380.56 274.717 380.277 275.026 380.064C275.325 379.851 275.671 379.717 276.066 379.664C276.461 379.6 276.882 379.568 277.33 379.568H280.722V388ZM279.362 380.768L277.554 380.752C277.287 380.752 277.015 380.763 276.738 380.784C276.471 380.805 276.231 380.875 276.018 380.992C275.837 381.099 275.687 381.253 275.57 381.456C275.463 381.648 275.405 381.899 275.394 382.208C275.405 382.496 275.474 382.741 275.602 382.944C275.73 383.136 275.911 383.291 276.146 383.408C276.455 383.557 276.797 383.643 277.17 383.664C277.554 383.685 277.949 383.696 278.354 383.696H279.362V380.768ZM289.093 379.568V380.768H286.197V388H284.837V380.768H281.941V379.568H289.093ZM291.634 388H290.306V379.568H291.666V386.032C291.741 385.883 291.842 385.723 291.97 385.552C292.098 385.371 292.2 385.232 292.274 385.136L296.354 379.568H297.698V388H296.338V381.536C296.253 381.696 296.157 381.851 296.05 382C295.954 382.139 295.864 382.261 295.778 382.368L291.634 388ZM306.238 388H304.878V384.88H302.942L300.894 388H299.31L301.502 384.672C300.894 384.501 300.419 384.224 300.078 383.84C299.736 383.445 299.555 382.923 299.534 382.272C299.523 381.707 299.608 381.253 299.79 380.912C299.982 380.56 300.232 380.277 300.542 380.064C300.84 379.851 301.187 379.717 301.582 379.664C301.976 379.6 302.398 379.568 302.846 379.568H306.238V388ZM304.878 380.768L303.07 380.752C302.803 380.752 302.531 380.763 302.254 380.784C301.987 380.805 301.747 380.875 301.534 380.992C301.352 381.099 301.203 381.253 301.086 381.456C300.979 381.648 300.92 381.899 300.91 382.208C300.92 382.496 300.99 382.741 301.118 382.944C301.246 383.136 301.427 383.291 301.662 383.408C301.971 383.557 302.312 383.643 302.686 383.664C303.07 383.685 303.464 383.696 303.87 383.696H304.878V380.768ZM316.297 388.096C315.625 388.096 315.044 387.989 314.553 387.776C314.062 387.563 313.657 387.264 313.337 386.88C313.017 386.496 312.777 386.043 312.617 385.52C312.457 384.997 312.377 384.427 312.377 383.808C312.377 383.211 312.462 382.651 312.633 382.128C312.804 381.595 313.054 381.136 313.385 380.752C313.716 380.357 314.132 380.048 314.633 379.824C315.134 379.589 315.742 379.472 316.457 379.472C316.884 379.472 317.262 379.52 317.593 379.616C317.924 379.701 318.233 379.845 318.521 380.048C318.82 380.24 319.076 380.496 319.289 380.816C319.502 381.136 319.657 381.525 319.753 381.984H318.361C318.201 381.515 317.945 381.179 317.593 380.976C317.252 380.773 316.846 380.677 316.377 380.688C315.918 380.688 315.513 380.779 315.161 380.96C314.82 381.131 314.542 381.36 314.329 381.648C314.126 381.936 313.977 382.272 313.881 382.656C313.785 383.029 313.737 383.413 313.737 383.808C313.737 384.224 313.785 384.619 313.881 384.992C313.988 385.365 314.142 385.696 314.345 385.984C314.558 386.261 314.83 386.485 315.161 386.656C315.492 386.816 315.886 386.896 316.345 386.896C316.569 386.896 316.788 386.875 317.001 386.832C317.225 386.789 317.428 386.72 317.609 386.624C317.801 386.517 317.966 386.379 318.105 386.208C318.244 386.037 318.345 385.829 318.409 385.584H319.817C319.732 386.021 319.577 386.4 319.353 386.72C319.14 387.029 318.873 387.291 318.553 387.504C318.233 387.707 317.881 387.856 317.497 387.952C317.113 388.048 316.713 388.096 316.297 388.096ZM327.213 391.04H325.853V379.568H327.149L327.213 380.864C327.501 380.405 327.891 380.064 328.381 379.84C328.883 379.605 329.421 379.483 329.997 379.472C330.648 379.472 331.197 379.584 331.645 379.808C332.104 380.021 332.483 380.325 332.781 380.72C333.091 381.104 333.32 381.563 333.469 382.096C333.619 382.619 333.693 383.184 333.693 383.792C333.693 384.411 333.619 384.981 333.469 385.504C333.32 386.027 333.091 386.48 332.781 386.864C332.472 387.248 332.083 387.552 331.613 387.776C331.144 387.989 330.584 388.096 329.933 388.096C329.293 388.096 328.749 387.995 328.301 387.792C327.853 387.589 327.491 387.323 327.213 386.992V391.04ZM329.821 386.896C330.28 386.896 330.664 386.816 330.973 386.656C331.293 386.485 331.549 386.261 331.741 385.984C331.944 385.696 332.088 385.365 332.173 384.992C332.269 384.619 332.323 384.219 332.333 383.792C332.333 383.365 332.285 382.965 332.189 382.592C332.104 382.208 331.96 381.877 331.757 381.6C331.555 381.323 331.288 381.104 330.957 380.944C330.637 380.773 330.248 380.688 329.789 380.688C329.245 380.688 328.776 380.837 328.381 381.136C327.987 381.424 327.688 381.792 327.485 382.24C327.368 382.485 327.288 382.741 327.245 383.008C327.203 383.264 327.181 383.531 327.181 383.808C327.181 384.128 327.203 384.427 327.245 384.704C327.288 384.971 327.368 385.227 327.485 385.472C327.688 385.877 327.981 386.219 328.365 386.496C328.76 386.763 329.245 386.896 329.821 386.896ZM336.503 384.288C336.535 384.661 336.61 385.008 336.727 385.328C336.855 385.637 337.026 385.909 337.239 386.144C337.452 386.379 337.714 386.565 338.023 386.704C338.343 386.832 338.711 386.896 339.127 386.896C339.33 386.896 339.538 386.88 339.751 386.848C339.975 386.805 340.183 386.741 340.375 386.656C340.567 386.56 340.738 386.437 340.887 386.288C341.036 386.139 341.148 385.957 341.223 385.744H342.615C342.519 386.149 342.354 386.501 342.119 386.8C341.895 387.099 341.623 387.344 341.303 387.536C340.994 387.728 340.647 387.872 340.263 387.968C339.879 388.053 339.49 388.096 339.095 388.096C338.423 388.096 337.836 387.989 337.335 387.776C336.844 387.563 336.434 387.269 336.103 386.896C335.772 386.512 335.527 386.059 335.367 385.536C335.207 385.003 335.127 384.421 335.127 383.792C335.127 383.163 335.212 382.587 335.383 382.064C335.564 381.531 335.82 381.072 336.151 380.688C336.482 380.304 336.887 380.005 337.367 379.792C337.847 379.579 338.418 379.472 339.079 379.472C339.751 379.472 340.332 379.605 340.823 379.872C341.314 380.139 341.708 380.491 342.007 380.928C342.306 381.355 342.514 381.819 342.631 382.32C342.759 382.821 342.812 383.285 342.791 383.712C342.791 383.808 342.786 383.904 342.775 384C342.775 384.096 342.77 384.192 342.759 384.288H336.503ZM341.415 383.104C341.394 382.389 341.17 381.808 340.743 381.36C340.316 380.912 339.746 380.688 339.031 380.688C338.636 380.688 338.29 380.752 337.991 380.88C337.692 381.008 337.442 381.184 337.239 381.408C337.036 381.632 336.876 381.893 336.759 382.192C336.642 382.48 336.567 382.784 336.535 383.104H341.415ZM344.619 388V379.568H351.611V388H350.251V380.768H345.979V388H344.619ZM354.816 384.288C354.848 384.661 354.922 385.008 355.039 385.328C355.168 385.637 355.338 385.909 355.552 386.144C355.765 386.379 356.026 386.565 356.336 386.704C356.656 386.832 357.024 386.896 357.44 386.896C357.642 386.896 357.85 386.88 358.064 386.848C358.288 386.805 358.496 386.741 358.688 386.656C358.88 386.56 359.05 386.437 359.2 386.288C359.349 386.139 359.461 385.957 359.536 385.744H360.928C360.832 386.149 360.666 386.501 360.432 386.8C360.208 387.099 359.936 387.344 359.616 387.536C359.306 387.728 358.96 387.872 358.576 387.968C358.192 388.053 357.802 388.096 357.408 388.096C356.736 388.096 356.149 387.989 355.648 387.776C355.157 387.563 354.746 387.269 354.416 386.896C354.085 386.512 353.84 386.059 353.68 385.536C353.52 385.003 353.44 384.421 353.44 383.792C353.44 383.163 353.525 382.587 353.696 382.064C353.877 381.531 354.133 381.072 354.464 380.688C354.794 380.304 355.2 380.005 355.68 379.792C356.16 379.579 356.73 379.472 357.391 379.472C358.064 379.472 358.645 379.605 359.136 379.872C359.626 380.139 360.021 380.491 360.32 380.928C360.618 381.355 360.826 381.819 360.944 382.32C361.072 382.821 361.125 383.285 361.104 383.712C361.104 383.808 361.098 383.904 361.088 384C361.088 384.096 361.082 384.192 361.072 384.288H354.816ZM359.728 383.104C359.706 382.389 359.482 381.808 359.056 381.36C358.629 380.912 358.058 380.688 357.344 380.688C356.949 380.688 356.602 380.752 356.304 380.88C356.005 381.008 355.754 381.184 355.552 381.408C355.349 381.632 355.189 381.893 355.072 382.192C354.954 382.48 354.88 382.784 354.848 383.104H359.728ZM369.155 379.568V380.768H366.259V388H364.899V380.768H362.003V379.568H369.155ZM371.697 388H370.369V379.568H371.729V386.032C371.804 385.883 371.905 385.723 372.033 385.552C372.161 385.371 372.262 385.232 372.337 385.136L376.417 379.568H377.761V388H376.401V381.536C376.316 381.696 376.22 381.851 376.113 382C376.017 382.139 375.926 382.261 375.841 382.368L371.697 388ZM386.124 379.568V380.768H383.228V388H381.868V380.768H378.972V379.568H386.124ZM391.05 379.472C391.722 379.472 392.303 379.579 392.794 379.792C393.284 380.005 393.695 380.304 394.026 380.688C394.367 381.072 394.618 381.531 394.778 382.064C394.948 382.587 395.034 383.163 395.034 383.792C395.034 384.421 394.948 385.003 394.778 385.536C394.618 386.059 394.367 386.512 394.026 386.896C393.695 387.269 393.279 387.563 392.778 387.776C392.276 387.989 391.69 388.096 391.018 388.096C390.346 388.096 389.759 387.989 389.258 387.776C388.767 387.563 388.351 387.269 388.01 386.896C387.679 386.512 387.428 386.059 387.258 385.536C387.098 385.003 387.018 384.421 387.018 383.792C387.018 383.163 387.098 382.587 387.258 382.064C387.428 381.531 387.679 381.072 388.01 380.688C388.351 380.304 388.772 380.005 389.274 379.792C389.775 379.579 390.367 379.472 391.05 379.472ZM391.018 386.896C391.476 386.896 391.871 386.816 392.202 386.656C392.543 386.496 392.82 386.277 393.034 386C393.258 385.712 393.418 385.381 393.514 385.008C393.62 384.635 393.674 384.229 393.674 383.792C393.674 383.365 393.62 382.965 393.514 382.592C393.418 382.208 393.258 381.877 393.034 381.6C392.82 381.312 392.543 381.088 392.202 380.928C391.871 380.768 391.476 380.688 391.018 380.688C390.559 380.688 390.164 380.768 389.834 380.928C389.503 381.088 389.226 381.312 389.002 381.6C388.788 381.877 388.628 382.208 388.522 382.592C388.426 382.965 388.378 383.365 388.378 383.792C388.378 384.229 388.426 384.635 388.522 385.008C388.628 385.381 388.788 385.712 389.002 386C389.226 386.277 389.503 386.496 389.834 386.656C390.164 386.816 390.559 386.896 391.018 386.896ZM398.213 391.04H396.853V379.568H398.149L398.213 380.864C398.501 380.405 398.891 380.064 399.381 379.84C399.883 379.605 400.421 379.483 400.997 379.472C401.648 379.472 402.197 379.584 402.645 379.808C403.104 380.021 403.483 380.325 403.781 380.72C404.091 381.104 404.32 381.563 404.469 382.096C404.619 382.619 404.693 383.184 404.693 383.792C404.693 384.411 404.619 384.981 404.469 385.504C404.32 386.027 404.091 386.48 403.781 386.864C403.472 387.248 403.083 387.552 402.613 387.776C402.144 387.989 401.584 388.096 400.933 388.096C400.293 388.096 399.749 387.995 399.301 387.792C398.853 387.589 398.491 387.323 398.213 386.992V391.04ZM400.821 386.896C401.28 386.896 401.664 386.816 401.973 386.656C402.293 386.485 402.549 386.261 402.741 385.984C402.944 385.696 403.088 385.365 403.173 384.992C403.269 384.619 403.323 384.219 403.333 383.792C403.333 383.365 403.285 382.965 403.189 382.592C403.104 382.208 402.96 381.877 402.757 381.6C402.555 381.323 402.288 381.104 401.957 380.944C401.637 380.773 401.248 380.688 400.789 380.688C400.245 380.688 399.776 380.837 399.381 381.136C398.987 381.424 398.688 381.792 398.485 382.24C398.368 382.485 398.288 382.741 398.245 383.008C398.203 383.264 398.181 383.531 398.181 383.808C398.181 384.128 398.203 384.427 398.245 384.704C398.288 384.971 398.368 385.227 398.485 385.472C398.688 385.877 398.981 386.219 399.365 386.496C399.76 386.763 400.245 386.896 400.821 386.896ZM410.159 379.472C410.831 379.472 411.412 379.579 411.903 379.792C412.394 380.005 412.804 380.304 413.135 380.688C413.476 381.072 413.727 381.531 413.887 382.064C414.058 382.587 414.143 383.163 414.143 383.792C414.143 384.421 414.058 385.003 413.887 385.536C413.727 386.059 413.476 386.512 413.135 386.896C412.804 387.269 412.388 387.563 411.887 387.776C411.386 387.989 410.799 388.096 410.127 388.096C409.455 388.096 408.868 387.989 408.367 387.776C407.876 387.563 407.46 387.269 407.119 386.896C406.788 386.512 406.538 386.059 406.367 385.536C406.207 385.003 406.127 384.421 406.127 383.792C406.127 383.163 406.207 382.587 406.367 382.064C406.538 381.531 406.788 381.072 407.119 380.688C407.46 380.304 407.882 380.005 408.383 379.792C408.884 379.579 409.476 379.472 410.159 379.472ZM410.127 386.896C410.586 386.896 410.98 386.816 411.311 386.656C411.652 386.496 411.93 386.277 412.143 386C412.367 385.712 412.527 385.381 412.623 385.008C412.73 384.635 412.783 384.229 412.783 383.792C412.783 383.365 412.73 382.965 412.623 382.592C412.527 382.208 412.367 381.877 412.143 381.6C411.93 381.312 411.652 381.088 411.311 380.928C410.98 380.768 410.586 380.688 410.127 380.688C409.668 380.688 409.274 380.768 408.943 380.928C408.612 381.088 408.335 381.312 408.111 381.6C407.898 381.877 407.738 382.208 407.631 382.592C407.535 382.965 407.487 383.365 407.487 383.792C407.487 384.229 407.535 384.635 407.631 385.008C407.738 385.381 407.898 385.712 408.111 386C408.335 386.277 408.612 386.496 408.943 386.656C409.274 386.816 409.668 386.896 410.127 386.896ZM415.963 379.568H417.787L420.523 383.792L423.211 379.568H425.003V388H423.659V381.072L420.683 385.84H420.299L417.307 381.072V388H415.963V379.568Z" fill="#111111"/>
<path d="M194.2 353H176.8V239.6H148V227.8C152 227.533 155.667 227.2 159 226.8C162.333 226.267 165.4 225.4 168.2 224.2C171 223 173.533 221.4 175.8 219.4C178.067 217.4 180.133 214.8 182 211.6H194.2V353ZM369.469 303.6C373.069 300.533 377.002 297.2 381.269 293.6C385.669 289.867 389.735 285.867 393.469 281.6C397.335 277.333 400.602 272.867 403.269 268.2C405.935 263.4 407.335 258.2 407.469 252.6C407.735 244.067 405.269 237.533 400.069 233C394.869 228.333 388.002 226 379.469 226C372.669 226 366.735 227.4 361.669 230.2C356.602 233 353.269 237.067 351.669 242.4H333.069C334.002 236.933 335.935 232.2 338.869 228.2C341.935 224.067 345.602 220.667 349.869 218C354.269 215.333 359.069 213.333 364.269 212C369.469 210.667 374.802 210 380.269 210C386.802 210 392.802 210.933 398.269 212.8C403.735 214.533 408.469 217.133 412.469 220.6C416.469 224.067 419.535 228.4 421.669 233.6C423.935 238.667 425.069 244.467 425.069 251C425.069 257.533 424.069 263.4 422.069 268.6C420.202 273.8 417.602 278.6 414.269 283C411.069 287.4 407.402 291.533 403.269 295.4C399.135 299.267 394.869 303.133 390.469 307L354.669 337.2H426.669V353H329.469V338.6L369.469 303.6Z" fill="#7B4DDE"/>
<path d="M231.025 278.809C236.55 279.524 242.359 280.776 247.908 280.892C255.796 281.058 263.863 278.788 271.724 278.324C282.616 277.682 292.766 275.705 303.767 277.13" stroke="#7B4DDE" stroke-width="15" stroke-linecap="round"/>
<path d="M231.221 317.721C245.601 319.584 260.262 319.703 274.499 317.558C282.757 316.315 293.185 316.133 301.461 317.205" stroke="#7B4DDE" stroke-width="15" stroke-linecap="round"/>
</svg>
