<svg width="1534" height="259" viewBox="0 0 1534 259" fill="none" xmlns="http://www.w3.org/2000/svg">
<mask id="path-1-outside-1_176_183" maskUnits="userSpaceOnUse" x="18" y="7" width="1500" height="231" fill="black">
<rect fill="white" x="18" y="7" width="1500" height="231"/>
<path d="M145.205 83.371C144.175 76.573 140.57 71.32 134.39 67.612C128.21 63.698 120.073 61.741 109.979 61.741C102.975 61.741 96.8981 62.977 91.7481 65.449C86.5981 67.921 84.0231 71.629 84.0231 76.573C84.0231 81.517 86.9071 85.225 92.6751 87.697C98.4431 90.169 106.889 92.847 118.013 95.731L138.098 100.675C146.956 102.941 155.299 105.413 163.127 108.091C171.161 110.563 178.165 114.065 184.139 118.597C190.113 123.129 194.851 129 198.353 136.21C201.855 143.214 203.812 152.381 204.224 163.711C204.224 176.689 201.649 187.71 196.499 196.774C191.555 205.632 184.963 212.842 176.723 218.404C168.483 223.966 159.11 228.086 148.604 230.764C138.304 233.236 127.798 234.472 117.086 234.472C106.786 234.472 96.3831 233.339 85.8771 231.073C75.5771 228.807 65.7921 224.687 56.5221 218.713C47.4581 212.739 39.7331 204.808 33.3471 194.92C27.1671 184.826 23.3561 172.569 21.9141 158.149H78.1521C80.2121 167.007 85.0531 173.29 92.6751 176.998C100.503 180.706 109.567 182.56 119.867 182.56C122.957 182.56 126.15 182.354 129.446 181.942C132.742 181.53 135.729 180.809 138.407 179.779C141.291 178.543 143.557 176.895 145.205 174.835C147.059 172.775 147.986 169.994 147.986 166.492C147.986 161.96 146.029 158.561 142.115 156.295C138.407 153.823 133.051 151.969 126.047 150.733L108.743 147.025C97.0011 144.553 85.9801 141.566 75.6801 138.064C65.3801 134.562 57.0371 130.442 50.6511 125.704C43.8531 120.554 38.4971 114.065 34.5831 106.237C30.6691 98.409 28.7121 88.418 28.7121 76.264V75.646C29.5361 63.286 32.6261 52.986 37.9821 44.746C43.3381 36.506 50.0331 29.811 58.0671 24.661C67.1311 18.893 76.6071 15.082 86.4951 13.228C96.5891 11.374 107.198 10.447 118.322 10.447C127.592 10.653 136.553 12.095 145.205 14.773C154.063 17.245 161.891 20.85 168.689 25.588C177.341 31.562 184.242 39.39 189.392 49.072C194.542 58.548 197.838 69.981 199.28 83.371H145.205ZM423.317 13.228V65.14H314.24V98.512H404.159V147.952H314.24V180.397H423.317V232H258.311V13.228H423.317ZM530.202 180.397H634.953V232H474.273V13.228H530.202V180.397ZM845.204 13.228V65.14H739.526V105.001H826.664V156.295H739.526V232H683.597V13.228H845.204ZM985.311 13.228C995.199 13.228 1005.29 14.155 1015.59 16.009C1026.1 17.657 1035.57 21.056 1044.02 26.206C1052.47 31.356 1059.47 38.669 1065.03 48.145C1070.59 57.621 1073.48 69.981 1073.68 85.225C1073.27 99.645 1069.77 112.52 1063.18 123.85C1056.79 135.18 1045.98 143.729 1030.73 149.497L1081.41 232H1017.76L975.732 158.149H948.849V232H892.92V13.228H985.311ZM985.62 109.018C996.126 109.018 1004.16 107.061 1009.72 103.147C1015.49 99.233 1018.37 93.568 1018.37 86.152C1018.37 81.62 1017.55 78.015 1015.9 75.337C1014.25 72.659 1011.99 70.599 1009.1 69.157C1006.22 67.509 1002.82 66.479 998.907 66.067C994.993 65.449 990.873 65.14 986.547 65.14H948.849V109.018H985.62ZM1298.93 13.228V65.14H1189.86V98.512H1279.78V147.952H1189.86V180.397H1298.93V232H1133.93V13.228H1298.93ZM1514.9 13.228V65.14H1405.82V98.512H1495.74V147.952H1405.82V180.397H1514.9V232H1349.89V13.228H1514.9Z"/>
</mask>
<path d="M145.205 83.371C144.175 76.573 140.57 71.32 134.39 67.612C128.21 63.698 120.073 61.741 109.979 61.741C102.975 61.741 96.8981 62.977 91.7481 65.449C86.5981 67.921 84.0231 71.629 84.0231 76.573C84.0231 81.517 86.9071 85.225 92.6751 87.697C98.4431 90.169 106.889 92.847 118.013 95.731L138.098 100.675C146.956 102.941 155.299 105.413 163.127 108.091C171.161 110.563 178.165 114.065 184.139 118.597C190.113 123.129 194.851 129 198.353 136.21C201.855 143.214 203.812 152.381 204.224 163.711C204.224 176.689 201.649 187.71 196.499 196.774C191.555 205.632 184.963 212.842 176.723 218.404C168.483 223.966 159.11 228.086 148.604 230.764C138.304 233.236 127.798 234.472 117.086 234.472C106.786 234.472 96.3831 233.339 85.8771 231.073C75.5771 228.807 65.7921 224.687 56.5221 218.713C47.4581 212.739 39.7331 204.808 33.3471 194.92C27.1671 184.826 23.3561 172.569 21.9141 158.149H78.1521C80.2121 167.007 85.0531 173.29 92.6751 176.998C100.503 180.706 109.567 182.56 119.867 182.56C122.957 182.56 126.15 182.354 129.446 181.942C132.742 181.53 135.729 180.809 138.407 179.779C141.291 178.543 143.557 176.895 145.205 174.835C147.059 172.775 147.986 169.994 147.986 166.492C147.986 161.96 146.029 158.561 142.115 156.295C138.407 153.823 133.051 151.969 126.047 150.733L108.743 147.025C97.0011 144.553 85.9801 141.566 75.6801 138.064C65.3801 134.562 57.0371 130.442 50.6511 125.704C43.8531 120.554 38.4971 114.065 34.5831 106.237C30.6691 98.409 28.7121 88.418 28.7121 76.264V75.646C29.5361 63.286 32.6261 52.986 37.9821 44.746C43.3381 36.506 50.0331 29.811 58.0671 24.661C67.1311 18.893 76.6071 15.082 86.4951 13.228C96.5891 11.374 107.198 10.447 118.322 10.447C127.592 10.653 136.553 12.095 145.205 14.773C154.063 17.245 161.891 20.85 168.689 25.588C177.341 31.562 184.242 39.39 189.392 49.072C194.542 58.548 197.838 69.981 199.28 83.371H145.205ZM423.317 13.228V65.14H314.24V98.512H404.159V147.952H314.24V180.397H423.317V232H258.311V13.228H423.317ZM530.202 180.397H634.953V232H474.273V13.228H530.202V180.397ZM845.204 13.228V65.14H739.526V105.001H826.664V156.295H739.526V232H683.597V13.228H845.204ZM985.311 13.228C995.199 13.228 1005.29 14.155 1015.59 16.009C1026.1 17.657 1035.57 21.056 1044.02 26.206C1052.47 31.356 1059.47 38.669 1065.03 48.145C1070.59 57.621 1073.48 69.981 1073.68 85.225C1073.27 99.645 1069.77 112.52 1063.18 123.85C1056.79 135.18 1045.98 143.729 1030.73 149.497L1081.41 232H1017.76L975.732 158.149H948.849V232H892.92V13.228H985.311ZM985.62 109.018C996.126 109.018 1004.16 107.061 1009.72 103.147C1015.49 99.233 1018.37 93.568 1018.37 86.152C1018.37 81.62 1017.55 78.015 1015.9 75.337C1014.25 72.659 1011.99 70.599 1009.1 69.157C1006.22 67.509 1002.82 66.479 998.907 66.067C994.993 65.449 990.873 65.14 986.547 65.14H948.849V109.018H985.62ZM1298.93 13.228V65.14H1189.86V98.512H1279.78V147.952H1189.86V180.397H1298.93V232H1133.93V13.228H1298.93ZM1514.9 13.228V65.14H1405.82V98.512H1495.74V147.952H1405.82V180.397H1514.9V232H1349.89V13.228H1514.9Z" fill="white"/>
<path d="M145.205 83.371L142.239 83.8204L142.625 86.371H145.205V83.371ZM134.39 67.612L132.785 70.1465L132.816 70.1658L132.847 70.1845L134.39 67.612ZM91.7481 65.449L90.4499 62.7444L90.4499 62.7444L91.7481 65.449ZM92.6751 87.697L91.4933 90.4544L91.4933 90.4544L92.6751 87.697ZM118.013 95.731L117.26 98.635L117.278 98.6396L117.296 98.644L118.013 95.731ZM138.098 100.675L138.842 97.7686L138.828 97.7652L138.815 97.762L138.098 100.675ZM163.127 108.091L162.156 110.929L162.2 110.945L162.245 110.958L163.127 108.091ZM184.139 118.597L182.326 120.987L182.326 120.987L184.139 118.597ZM198.353 136.21L195.655 137.521L195.662 137.536L195.67 137.552L198.353 136.21ZM204.224 163.711H207.224V163.656L207.222 163.602L204.224 163.711ZM196.499 196.774L193.891 195.292L193.885 195.302L193.88 195.312L196.499 196.774ZM176.723 218.404L178.402 220.891L178.402 220.891L176.723 218.404ZM148.604 230.764L149.304 233.681L149.325 233.676L149.345 233.671L148.604 230.764ZM85.8771 231.073L85.2325 234.003L85.2446 234.006L85.8771 231.073ZM56.5221 218.713L54.8711 221.218L54.884 221.226L54.897 221.235L56.5221 218.713ZM33.3471 194.92L30.7885 196.486L30.8074 196.517L30.827 196.548L33.3471 194.92ZM21.9141 158.149V155.149H18.5991L18.929 158.448L21.9141 158.149ZM78.1521 158.149L81.0741 157.469L80.5345 155.149H78.1521V158.149ZM92.6751 176.998L91.3627 179.696L91.3767 179.703L91.3908 179.709L92.6751 176.998ZM129.446 181.942L129.818 184.919L129.818 184.919L129.446 181.942ZM138.407 179.779L139.484 182.579L139.537 182.559L139.589 182.536L138.407 179.779ZM145.205 174.835L142.975 172.828L142.917 172.893L142.862 172.961L145.205 174.835ZM142.115 156.295L140.451 158.791L140.53 158.844L140.612 158.891L142.115 156.295ZM126.047 150.733L125.418 153.666L125.472 153.678L125.526 153.687L126.047 150.733ZM108.743 147.025L109.372 144.092L109.361 144.089L108.743 147.025ZM75.6801 138.064L76.6458 135.224L76.6458 135.224L75.6801 138.064ZM50.6511 125.704L48.8395 128.095L48.8515 128.104L48.8635 128.113L50.6511 125.704ZM34.5831 106.237L31.8998 107.579L31.8998 107.579L34.5831 106.237ZM28.7121 75.646L25.7187 75.4464L25.7121 75.5461V75.646H28.7121ZM37.9821 44.746L40.4974 46.381L40.4974 46.381L37.9821 44.746ZM58.0671 24.661L56.4564 22.13L56.4481 22.1354L58.0671 24.661ZM86.4951 13.228L85.9531 10.2773L85.9422 10.2794L86.4951 13.228ZM118.322 10.447L118.389 7.44774L118.355 7.447H118.322V10.447ZM145.205 14.773L144.318 17.6389L144.358 17.6513L144.399 17.6626L145.205 14.773ZM168.689 25.588L166.974 28.0492L166.985 28.0567L168.689 25.588ZM189.392 49.072L186.743 50.4808L186.75 50.4927L186.756 50.5045L189.392 49.072ZM199.28 83.371V86.371H202.621L202.263 83.0498L199.28 83.371ZM148.171 82.9216C147 75.1913 142.838 69.1822 135.934 65.0395L132.847 70.1845C138.302 73.4578 141.35 77.9547 142.239 83.8204L148.171 82.9216ZM135.995 65.0775C129.185 60.7646 120.433 58.741 109.979 58.741V64.741C119.713 64.741 127.235 66.6314 132.785 70.1465L135.995 65.0775ZM109.979 58.741C102.625 58.741 96.0861 60.039 90.4499 62.7444L93.0463 68.1536C97.71 65.915 103.325 64.741 109.979 64.741V58.741ZM90.4499 62.7444C87.5289 64.1465 85.1425 65.9935 83.4902 68.3728C81.8206 70.7771 81.0231 73.5503 81.0231 76.573H87.0231C87.0231 74.6517 87.5131 73.0989 88.4184 71.7952C89.3411 70.4665 90.8173 69.2235 93.0463 68.1536L90.4499 62.7444ZM81.0231 76.573C81.0231 79.6746 81.944 82.4943 83.818 84.9038C85.6589 87.2706 88.2936 89.0831 91.4933 90.4544L93.8568 84.9396C91.2885 83.8389 89.5973 82.5614 88.5541 81.2202C87.5442 79.9217 87.0231 78.4154 87.0231 76.573H81.0231ZM91.4933 90.4544C97.4703 93.016 106.089 95.7387 117.26 98.635L118.766 92.827C107.689 89.9553 99.4158 87.322 93.8568 84.9396L91.4933 90.4544ZM117.296 98.644L137.381 103.588L138.815 97.762L118.73 92.818L117.296 98.644ZM137.355 103.581C146.144 105.83 154.41 108.28 162.156 110.929L164.098 105.253C156.188 102.546 147.768 100.052 138.842 97.7686L137.355 103.581ZM162.245 110.958C169.983 113.339 176.664 116.692 182.326 120.987L185.952 116.207C179.667 111.438 172.339 107.787 164.009 105.224L162.245 110.958ZM182.326 120.987C187.898 125.214 192.344 130.705 195.655 137.521L201.052 134.899C197.358 127.295 192.328 121.044 185.952 116.207L182.326 120.987ZM195.67 137.552C198.914 144.04 200.823 152.742 201.226 163.82L207.222 163.602C206.801 152.02 204.796 142.388 201.036 134.868L195.67 137.552ZM201.224 163.711C201.224 176.295 198.728 186.778 193.891 195.292L199.107 198.256C204.57 188.642 207.224 177.083 207.224 163.711H201.224ZM193.88 195.312C189.16 203.768 182.887 210.624 175.045 215.917L178.402 220.891C187.039 215.06 193.95 207.496 199.119 198.236L193.88 195.312ZM175.045 215.917C167.115 221.27 158.065 225.256 147.863 227.857L149.345 233.671C160.155 230.916 169.851 226.662 178.402 220.891L175.045 215.917ZM147.904 227.847C137.836 230.263 127.565 231.472 117.086 231.472V237.472C128.031 237.472 138.772 236.209 149.304 233.681L147.904 227.847ZM117.086 231.472C107.008 231.472 96.8168 230.364 86.5096 228.14L85.2446 234.006C95.9494 236.314 106.564 237.472 117.086 237.472V231.472ZM86.5217 228.143C76.586 225.957 67.1311 221.981 58.1472 216.191L54.897 221.235C64.4531 227.393 74.5682 231.657 85.2325 234.003L86.5217 228.143ZM58.173 216.208C49.4849 210.482 42.0467 202.861 35.8672 193.292L30.827 196.548C37.4195 206.755 45.4313 214.996 54.8711 221.218L58.173 216.208ZM35.9056 193.354C30.0084 183.721 26.3061 171.92 24.8992 157.85L18.929 158.448C20.406 173.218 24.3258 185.931 30.7885 196.486L35.9056 193.354ZM21.9141 161.149H78.1521V155.149H21.9141V161.149ZM75.2301 158.829C77.4778 168.494 82.8617 175.56 91.3627 179.696L93.9875 174.3C87.2445 171.02 82.9464 165.52 81.0741 157.469L75.2301 158.829ZM91.3908 179.709C99.6891 183.64 109.206 185.56 119.867 185.56V179.56C109.928 179.56 101.317 177.772 93.9593 174.287L91.3908 179.709ZM119.867 185.56C123.09 185.56 126.408 185.345 129.818 184.919L129.074 178.965C125.892 179.363 122.824 179.56 119.867 179.56V185.56ZM129.818 184.919C133.318 184.481 136.547 183.709 139.484 182.579L137.33 176.979C134.911 177.909 132.166 178.579 129.074 178.965L129.818 184.919ZM139.589 182.536C142.841 181.143 145.538 179.221 147.548 176.709L142.862 172.961C141.576 174.569 139.741 175.943 137.225 177.022L139.589 182.536ZM147.435 176.842C149.905 174.097 150.986 170.533 150.986 166.492H144.986C144.986 169.455 144.213 171.453 142.975 172.828L147.435 176.842ZM150.986 166.492C150.986 160.892 148.461 156.502 143.618 153.699L140.612 158.891C143.597 160.62 144.986 163.028 144.986 166.492H150.986ZM143.779 153.799C139.581 151 133.765 149.049 126.568 147.779L125.526 153.687C132.337 154.889 137.233 156.646 140.451 158.791L143.779 153.799ZM126.676 147.8L109.372 144.092L108.114 149.958L125.418 153.666L126.676 147.8ZM109.361 144.089C97.725 141.64 86.821 138.683 76.6458 135.224L74.7144 140.904C85.1392 144.449 96.2772 147.466 108.125 149.961L109.361 144.089ZM76.6458 135.224C66.5399 131.788 58.5017 127.793 52.4386 123.295L48.8635 128.113C55.5724 133.091 64.2202 137.336 74.7144 140.904L76.6458 135.224ZM52.4627 123.313C46.0418 118.448 40.9799 112.322 37.2664 104.895L31.8998 107.579C36.0143 115.808 41.6644 122.66 48.8395 128.095L52.4627 123.313ZM37.2664 104.895C33.6255 97.6136 31.7121 88.1229 31.7121 76.264H25.7121C25.7121 88.7131 27.7127 99.2044 31.8998 107.579L37.2664 104.895ZM31.7121 76.264V75.646H25.7121V76.264H31.7121ZM31.7054 75.8455C32.5041 63.8661 35.4845 54.0932 40.4974 46.381L35.4667 43.111C29.7677 51.8788 26.5681 62.7059 25.7187 75.4464L31.7054 75.8455ZM40.4974 46.381C45.6284 38.4872 52.0215 32.0998 59.6861 27.1866L56.4481 22.1354C48.0446 27.5222 41.0478 34.5248 35.4667 43.111L40.4974 46.381ZM59.6777 27.192C68.4411 21.6153 77.5609 17.9554 87.0479 16.1766L85.9422 10.2794C75.6533 12.2085 65.821 16.1707 56.4565 22.13L59.6777 27.192ZM87.037 16.1786C96.9381 14.3601 107.365 13.447 118.322 13.447V7.447C107.031 7.447 96.2401 8.38791 85.9531 10.2774L87.037 16.1786ZM118.255 13.4463C127.254 13.6462 135.938 15.0451 144.318 17.6389L146.092 11.9071C137.168 9.14487 127.93 7.65977 118.389 7.44774L118.255 13.4463ZM144.399 17.6626C152.967 20.0538 160.481 23.5241 166.974 28.0492L170.404 23.1268C163.301 18.1759 155.159 14.4362 146.011 11.8834L144.399 17.6626ZM166.985 28.0567C175.224 33.7461 181.809 41.2037 186.743 50.4808L192.041 47.6632C186.675 37.5763 179.458 29.3778 170.394 23.1193L166.985 28.0567ZM186.756 50.5045C191.679 59.5623 194.887 70.5982 196.297 83.6922L202.263 83.0498C200.789 69.3638 197.405 57.5337 192.028 47.6395L186.756 50.5045ZM199.28 80.371H145.205V86.371H199.28V80.371ZM423.317 13.228H426.317V10.228H423.317V13.228ZM423.317 65.14V68.14H426.317V65.14H423.317ZM314.24 65.14V62.14H311.24V65.14H314.24ZM314.24 98.512H311.24V101.512H314.24V98.512ZM404.159 98.512H407.159V95.512H404.159V98.512ZM404.159 147.952V150.952H407.159V147.952H404.159ZM314.24 147.952V144.952H311.24V147.952H314.24ZM314.24 180.397H311.24V183.397H314.24V180.397ZM423.317 180.397H426.317V177.397H423.317V180.397ZM423.317 232V235H426.317V232H423.317ZM258.311 232H255.311V235H258.311V232ZM258.311 13.228V10.228H255.311V13.228H258.311ZM420.317 13.228V65.14H426.317V13.228H420.317ZM423.317 62.14H314.24V68.14H423.317V62.14ZM311.24 65.14V98.512H317.24V65.14H311.24ZM314.24 101.512H404.159V95.512H314.24V101.512ZM401.159 98.512V147.952H407.159V98.512H401.159ZM404.159 144.952H314.24V150.952H404.159V144.952ZM311.24 147.952V180.397H317.24V147.952H311.24ZM314.24 183.397H423.317V177.397H314.24V183.397ZM420.317 180.397V232H426.317V180.397H420.317ZM423.317 229H258.311V235H423.317V229ZM261.311 232V13.228H255.311V232H261.311ZM258.311 16.228H423.317V10.228H258.311V16.228ZM530.202 180.397H527.202V183.397H530.202V180.397ZM634.953 180.397H637.953V177.397H634.953V180.397ZM634.953 232V235H637.953V232H634.953ZM474.273 232H471.273V235H474.273V232ZM474.273 13.228V10.228H471.273V13.228H474.273ZM530.202 13.228H533.202V10.228H530.202V13.228ZM530.202 183.397H634.953V177.397H530.202V183.397ZM631.953 180.397V232H637.953V180.397H631.953ZM634.953 229H474.273V235H634.953V229ZM477.273 232V13.228H471.273V232H477.273ZM474.273 16.228H530.202V10.228H474.273V16.228ZM527.202 13.228V180.397H533.202V13.228H527.202ZM845.204 13.228H848.204V10.228H845.204V13.228ZM845.204 65.14V68.14H848.204V65.14H845.204ZM739.526 65.14V62.14H736.526V65.14H739.526ZM739.526 105.001H736.526V108.001H739.526V105.001ZM826.664 105.001H829.664V102.001H826.664V105.001ZM826.664 156.295V159.295H829.664V156.295H826.664ZM739.526 156.295V153.295H736.526V156.295H739.526ZM739.526 232V235H742.526V232H739.526ZM683.597 232H680.597V235H683.597V232ZM683.597 13.228V10.228H680.597V13.228H683.597ZM842.204 13.228V65.14H848.204V13.228H842.204ZM845.204 62.14H739.526V68.14H845.204V62.14ZM736.526 65.14V105.001H742.526V65.14H736.526ZM739.526 108.001H826.664V102.001H739.526V108.001ZM823.664 105.001V156.295H829.664V105.001H823.664ZM826.664 153.295H739.526V159.295H826.664V153.295ZM736.526 156.295V232H742.526V156.295H736.526ZM739.526 229H683.597V235H739.526V229ZM686.597 232V13.228H680.597V232H686.597ZM683.597 16.228H845.204V10.228H683.597V16.228ZM1015.59 16.009L1015.06 18.9615L1015.09 18.9675L1015.13 18.9727L1015.59 16.009ZM1044.02 26.206L1042.46 28.7674L1042.46 28.7674L1044.02 26.206ZM1073.68 85.225L1076.68 85.3107L1076.69 85.2476L1076.68 85.1845L1073.68 85.225ZM1063.18 123.85L1060.59 122.341L1060.58 122.359L1060.57 122.377L1063.18 123.85ZM1030.73 149.497L1029.67 146.691L1026.28 147.975L1028.18 151.067L1030.73 149.497ZM1081.41 232V235H1086.77L1083.97 230.43L1081.41 232ZM1017.76 232L1015.15 233.484L1016.01 235H1017.76V232ZM975.732 158.149L978.339 156.665L977.477 155.149H975.732V158.149ZM948.849 158.149V155.149H945.849V158.149H948.849ZM948.849 232V235H951.849V232H948.849ZM892.92 232H889.92V235H892.92V232ZM892.92 13.228V10.228H889.92V13.228H892.92ZM1009.72 103.147L1008.04 100.665L1008.02 100.679L1008 100.694L1009.72 103.147ZM1015.9 75.337L1018.46 73.7647L1018.46 73.7647L1015.9 75.337ZM1009.1 69.157L1007.62 71.7617L1007.69 71.803L1007.76 71.8403L1009.1 69.157ZM998.907 66.067L998.439 69.0303L998.516 69.0424L998.593 69.0505L998.907 66.067ZM948.849 65.14V62.14H945.849V65.14H948.849ZM948.849 109.018H945.849V112.018H948.849V109.018ZM985.311 16.228C995.011 16.228 1004.93 17.1373 1015.06 18.9615L1016.12 13.0564C1005.66 11.1727 995.387 10.228 985.311 10.228V16.228ZM1015.13 18.9727C1025.27 20.5644 1034.37 23.8371 1042.46 28.7674L1045.58 23.6446C1036.78 18.2749 1026.92 14.7495 1016.06 13.0452L1015.13 18.9727ZM1042.46 28.7674C1050.44 33.6321 1057.11 40.5663 1062.45 49.6636L1067.62 46.6264C1061.84 36.7717 1054.5 29.0799 1045.58 23.6446L1042.46 28.7674ZM1062.45 49.6636C1067.66 58.5503 1070.48 70.3498 1070.69 85.2655L1076.68 85.1845C1076.47 69.6122 1073.53 56.6916 1067.62 46.6264L1062.45 49.6636ZM1070.69 85.1393C1070.29 99.11 1066.9 111.487 1060.59 122.341L1065.77 125.359C1072.64 113.553 1076.26 100.18 1076.68 85.3107L1070.69 85.1393ZM1060.57 122.377C1054.6 132.952 1044.43 141.107 1029.67 146.691L1031.8 152.303C1047.53 146.351 1058.98 137.408 1065.79 125.323L1060.57 122.377ZM1028.18 151.067L1078.85 233.57L1083.97 230.43L1033.29 147.927L1028.18 151.067ZM1081.41 229H1017.76V235H1081.41V229ZM1020.36 230.516L978.339 156.665L973.125 159.633L1015.15 233.484L1020.36 230.516ZM975.732 155.149H948.849V161.149H975.732V155.149ZM945.849 158.149V232H951.849V158.149H945.849ZM948.849 229H892.92V235H948.849V229ZM895.92 232V13.228H889.92V232H895.92ZM892.92 16.228H985.311V10.228H892.92V16.228ZM985.62 112.018C996.43 112.018 1005.17 110.016 1011.45 105.6L1008 100.694C1003.15 104.106 995.822 106.018 985.62 106.018V112.018ZM1011.41 105.629C1018.06 101.116 1021.37 94.4869 1021.37 86.152H1015.37C1015.37 92.6491 1012.92 97.3499 1008.04 100.665L1011.41 105.629ZM1021.37 86.152C1021.37 81.2964 1020.5 77.0801 1018.46 73.7647L1013.35 76.9093C1014.6 78.9499 1015.37 81.9436 1015.37 86.152H1021.37ZM1018.46 73.7647C1016.51 70.5979 1013.82 68.159 1010.45 66.4737L1007.76 71.8403C1010.16 73.0389 1012 74.72 1013.35 76.9093L1018.46 73.7647ZM1010.59 66.5523C1007.29 64.6635 1003.47 63.5311 999.221 63.0835L998.593 69.0505C1002.17 69.4269 1005.15 70.3545 1007.62 71.7617L1010.59 66.5523ZM999.375 63.1037C995.293 62.4592 991.015 62.14 986.547 62.14V68.14C990.73 68.14 994.693 68.4388 998.439 69.0303L999.375 63.1037ZM986.547 62.14H948.849V68.14H986.547V62.14ZM945.849 65.14V109.018H951.849V65.14H945.849ZM948.849 112.018H985.62V106.018H948.849V112.018ZM1298.93 13.228H1301.93V10.228H1298.93V13.228ZM1298.93 65.14V68.14H1301.93V65.14H1298.93ZM1189.86 65.14V62.14H1186.86V65.14H1189.86ZM1189.86 98.512H1186.86V101.512H1189.86V98.512ZM1279.78 98.512H1282.78V95.512H1279.78V98.512ZM1279.78 147.952V150.952H1282.78V147.952H1279.78ZM1189.86 147.952V144.952H1186.86V147.952H1189.86ZM1189.86 180.397H1186.86V183.397H1189.86V180.397ZM1298.93 180.397H1301.93V177.397H1298.93V180.397ZM1298.93 232V235H1301.93V232H1298.93ZM1133.93 232H1130.93V235H1133.93V232ZM1133.93 13.228V10.228H1130.93V13.228H1133.93ZM1295.93 13.228V65.14H1301.93V13.228H1295.93ZM1298.93 62.14H1189.86V68.14H1298.93V62.14ZM1186.86 65.14V98.512H1192.86V65.14H1186.86ZM1189.86 101.512H1279.78V95.512H1189.86V101.512ZM1276.78 98.512V147.952H1282.78V98.512H1276.78ZM1279.78 144.952H1189.86V150.952H1279.78V144.952ZM1186.86 147.952V180.397H1192.86V147.952H1186.86ZM1189.86 183.397H1298.93V177.397H1189.86V183.397ZM1295.93 180.397V232H1301.93V180.397H1295.93ZM1298.93 229H1133.93V235H1298.93V229ZM1136.93 232V13.228H1130.93V232H1136.93ZM1133.93 16.228H1298.93V10.228H1133.93V16.228ZM1514.9 13.228H1517.9V10.228H1514.9V13.228ZM1514.9 65.14V68.14H1517.9V65.14H1514.9ZM1405.82 65.14V62.14H1402.82V65.14H1405.82ZM1405.82 98.512H1402.82V101.512H1405.82V98.512ZM1495.74 98.512H1498.74V95.512H1495.74V98.512ZM1495.74 147.952V150.952H1498.74V147.952H1495.74ZM1405.82 147.952V144.952H1402.82V147.952H1405.82ZM1405.82 180.397H1402.82V183.397H1405.82V180.397ZM1514.9 180.397H1517.9V177.397H1514.9V180.397ZM1514.9 232V235H1517.9V232H1514.9ZM1349.89 232H1346.89V235H1349.89V232ZM1349.89 13.228V10.228H1346.89V13.228H1349.89ZM1511.9 13.228V65.14H1517.9V13.228H1511.9ZM1514.9 62.14H1405.82V68.14H1514.9V62.14ZM1402.82 65.14V98.512H1408.82V65.14H1402.82ZM1405.82 101.512H1495.74V95.512H1405.82V101.512ZM1492.74 98.512V147.952H1498.74V98.512H1492.74ZM1495.74 144.952H1405.82V150.952H1495.74V144.952ZM1402.82 147.952V180.397H1408.82V147.952H1402.82ZM1405.82 183.397H1514.9V177.397H1405.82V183.397ZM1511.9 180.397V232H1517.9V180.397H1511.9ZM1514.9 229H1349.89V235H1514.9V229ZM1352.89 232V13.228H1346.89V232H1352.89ZM1349.89 16.228H1514.9V10.228H1349.89V16.228Z" fill="#E7EDFA" mask="url(#path-1-outside-1_176_183)"/>
</svg>
