<?xml version="1.0" encoding="UTF-8" standalone="no"?>
<!-- Created with Inkscape (http://www.inkscape.org/) -->

<svg
   width="197mm"
   height="198mm"
   viewBox="0 0 197 198"
   version="1.1"
   id="svg5"
   xml:space="preserve"
   xmlns="http://www.w3.org/2000/svg"
   xmlns:svg="http://www.w3.org/2000/svg"><defs
     id="defs2" /><g
     id="layer1"><g
       style="fill:none"
       id="g18"
       transform="matrix(0.23419304,0,0,0.23419304,0.33339606,1.0499226)"><circle
         cx="418.5"
         cy="418.5"
         r="398"
         stroke="#f8f8f9"
         stroke-width="41"
         id="circle9" /></g><g
       style="fill:none"
       id="g199"
       transform="matrix(0.24692796,0,0,0.24692796,14.72226,16.144957)"><path
         d="m 188.933,553.585 c -34.108,0.86 -74.348,-8.452 -111.5993,-26.832 -17.177,-8.792 -30.9011,-23.077 -38.9765,-40.57 -1.8487,-3.903 -3.8515,-8.39 -0.4006,-11.679 3.4509,-3.289 7.3331,0 10.3527,2.059 21.0443,13.923 42.366,27.293 66.4917,35.345 68.217,22.683 132.058,15.368 189.337,-29.628 26.56,-20.869 30.442,-48.008 13.557,-77.329 -8.14,-13.802 -18.007,-26.515 -29.363,-37.834 -13.373,-13.585 -27.731,-26.401 -40.394,-40.478 -38.145,-42.045 -36.974,-99.12 4.652,-144.822 54.629,-59.964 123.247,-82.0313 202.432,-65.25 82.082,17.427 146.016,63.529 193.682,132.159 9.037,13.727 15.741,28.846 19.843,44.75 1.441,5.129 2.116,10.442 2.002,15.767 0,4.211 0,9.528 -4.498,10.788 -4.499,1.26 -5.639,-4.241 -7.734,-7.008 -20.582,-27.415 -40.948,-55.015 -61.623,-82.461 -49.299,-66.018 -155.66,-101.794 -232.258,-77.974 -27.292,8.245 -51.165,25.102 -68.032,48.038 -18.271,24.588 -18.025,47.947 0.37,72.381 15.406,20.623 36.327,35.775 55.122,53.018 40.055,36.574 52.626,98.904 28.193,144.453 -18.302,34.023 -49.299,53.325 -84.424,66.449 -31.675,11.648 -64.797,16.75 -106.732,16.658 z"
         fill="#f8f8f9"
         id="path178" /><path
         d="m 104.57,571.798 c 8.953,-1.876 16.024,1.323 22.97,3.784 48.966,17.378 98.58,15.379 148.194,4.859 31.781,-7.172 62.005,-19.987 89.226,-37.833 39.909,-25.366 61.521,-61.538 64.835,-108.518 2.562,-36.695 -5.28,-72.099 -14.079,-107.318 -6.915,-27.683 -16.795,-54.72 -21.611,-83.049 -5.619,-33.589 9.571,-52.628 43.902,-50.414 57.395,3.722 109.448,21.009 146.774,68.562 33.529,42.724 59.432,89.047 69.127,143.214 4.26,23.684 -2.254,45.308 -11.64,66.531 -1.049,2.369 -2.223,5.506 -5.31,5.383 -4.199,-0.185 -3.89,-4.429 -4.384,-7.013 -4.482,-25.516 -11.665,-50.489 -21.427,-74.498 -13.399,-31.59 -27.354,-62.872 -49.614,-89.601 -2.657,-3.22 -5.481,-6.3 -8.459,-9.228 -23.557,-23.253 -47.268,-17.502 -56.932,13.903 -7.255,23.439 -9.632,47.8 -13.769,71.823 -6.175,36.203 -14.789,71.607 -31.677,104.58 -41.278,80.589 -134.517,132.694 -230.01,124.389 -33.467,-3.076 -66.131,-8.274 -96.172,-24.053 -7.07,-3.63 -14.819,-7.229 -19.944,-15.503 z"
         fill="#f8f8f9"
         id="path180" /><path
         d="M 617.775,170.472 C 603.998,159.875 591.361,149.708 578.262,140.186 545.409,115.946 508.128,98.3236 468.507,88.3058 425.572,77.5858 382.577,82.1625 340.32,93.6505 300.9,104.248 264.253,120.65 232.445,146.636 c -47.927,39.041 -61.15,89.631 -50.979,148.422 7.059,40.792 24.195,78.45 36.308,117.675 3.317,9.753 5.094,19.959 5.271,30.256 0,15.942 -6.596,24.788 -21.576,29.703 -35.074,11.395 -68.855,6.143 -101.371,-9.215 C 58.0265,443.849 24.3387,415.497 7.81838,370.621 3.19516,358.027 2.23969,344.573 1.06848,331.304 c -0.308219,-3.656 -0.523939,-8.14 3.88353,-9.799 3.85268,-1.474 6.44169,1.689 8.69169,4.208 10.88,12.287 21.3592,24.788 32.5166,36.86 7.8869,8.871 17.8952,15.612 29.0955,19.597 18.7086,6.143 34.5512,-1.904 39.7902,-20.949 7.983,-29.027 11.712,-58.975 18.185,-88.34 6.996,-31.638 14.825,-63.092 29.342,-92.149 18.832,-37.843 49.9,-63.86 85.899,-84.5322 52.15,-29.9486 107.876,-46.0747 168.532,-39.5013 54.431,5.8975 106.92,18.4297 153.06,49.7605 17.537,11.918 32.855,26.109 43.15,44.907 2.619,5.314 6.472,10.782 4.561,19.106 z"
         fill="#f8f8f9"
         id="path182" /><path
         d="m 301.946,626.636 c 29.69,-2.394 58.959,-8.518 87.112,-18.228 36.124,-12.955 69.343,-30.629 96.443,-58.604 23.3,-23.935 35.475,-52.435 35.135,-85.809 -0.247,-24.49 -1.514,-48.98 -1.73,-73.47 0,-13.078 1.885,-26.033 9.827,-37.013 7.941,-10.981 16.563,-12.091 26.668,-2.129 1.956,1.856 3.697,3.926 5.191,6.169 23.949,38.278 41.254,79.794 41.47,124.826 0.371,72.731 -29.356,117.732 -100.893,141.575 -61.803,20.604 -125.214,19.802 -188.716,7.433 -2.237,-0.507 -4.436,-1.167 -6.582,-1.974 -1.373,-0.831 -2.685,-1.758 -3.925,-2.776 z"
         fill="#f8f8f9"
         id="path184" /><path
         d="m 307.917,1.78903 c 19.179,-2.031207 38.517,-2.031207 57.696,0 27.449,3.62535 52.312,7.62255 76.93,18.99437 -20.094,3.9352 -40.004,4.8337 -59.667,6.9098 -31.51,3.3155 -62.989,6.5071 -94.13,12.8592 -62.19,12.6113 -109.209,49.2055 -150.781,94.7236 -18.125,19.769 -34.403,41.304 -55.1737,58.564 -7.072,6.5 -15.2844,11.617 -24.2172,15.09 -11.6933,3.904 -18.0015,-0.868 -16.986,-13.293 1.1385,-13.758 7.3852,-25.812 14.6165,-37.183 C 91.0996,103.639 138.365,62.8001 196.4,34.5099 231.429,17.2309 269.153,6.16198 307.917,1.78903 Z"
         fill="#f8f8f9"
         id="path186" /></g></g></svg>
